<svg width="178" height="37" viewBox="0 0 178 37" fill="none" xmlns="http://www.w3.org/2000/svg">
<path d="M56.416 19.848L57.4 19.968C57.384 20.592 57.352 21.264 57.304 21.984C57.256 22.688 57.16 23.36 57.016 24H46.96V23.112L48.352 22.872C48.656 22.824 48.808 22.64 48.808 22.32V12.048C48.808 11.728 48.656 11.544 48.352 11.496L46.96 11.232V10.344H53.032V11.232L51.208 11.52C50.904 11.584 50.752 11.768 50.752 12.072V22.944H53.224C53.64 22.944 54.008 22.928 54.328 22.896C54.664 22.864 54.936 22.808 55.144 22.728C55.4 22.632 55.568 22.456 55.648 22.2L56.416 19.848ZM61.6949 24.192C60.8949 24.192 60.2229 23.984 59.6789 23.568C59.1509 23.152 58.8869 22.552 58.8869 21.768C58.8869 21.096 59.0789 20.568 59.4629 20.184C59.8629 19.784 60.3589 19.496 60.9509 19.32C61.5429 19.144 62.1429 19.032 62.7509 18.984L65.1029 18.792V19.704L63.0629 19.896C62.3589 19.944 61.8149 20.104 61.4309 20.376C61.0629 20.648 60.8789 21.056 60.8789 21.6C60.8789 22.032 60.9989 22.368 61.2389 22.608C61.4949 22.848 61.8709 22.968 62.3669 22.968C62.8949 22.968 63.4149 22.848 63.9269 22.608C64.4549 22.368 64.8549 22.072 65.1269 21.72L65.3429 22.176C65.0069 22.768 64.5109 23.256 63.8549 23.64C63.2149 24.008 62.4949 24.192 61.6949 24.192ZM59.1749 15.888C59.4149 15.216 59.8949 14.704 60.6149 14.352C61.3349 14 62.1589 13.824 63.0869 13.824C64.2549 13.824 65.1269 14.12 65.7029 14.712C66.2789 15.288 66.5669 16.176 66.5669 17.376V22.344C66.5669 22.696 66.7429 22.888 67.0949 22.92L68.0789 23.016V23.832C67.9189 23.88 67.6709 23.944 67.3349 24.024C66.9989 24.104 66.6869 24.144 66.3989 24.144C65.9189 24.144 65.5349 24.008 65.2469 23.736C64.9749 23.464 64.8069 23.064 64.7429 22.536V17.64C64.7429 16.744 64.5589 16.12 64.1909 15.768C63.8389 15.4 63.2949 15.216 62.5589 15.216C62.0149 15.216 61.4949 15.304 60.9989 15.48C60.5029 15.656 60.0469 15.944 59.6309 16.344L59.1749 15.888ZM72.4338 16.296C72.6418 15.912 72.9298 15.528 73.2978 15.144C73.6818 14.744 74.1138 14.416 74.5938 14.16C75.0898 13.904 75.5938 13.776 76.1058 13.776C76.2818 13.776 76.4818 13.8 76.7058 13.848C76.9458 13.896 77.1458 13.96 77.3058 14.04C77.3378 14.52 77.3298 15.072 77.2818 15.696C77.2498 16.304 77.1778 16.864 77.0658 17.376H76.1778L75.9138 16.008C75.8658 15.816 75.7938 15.68 75.6978 15.6C75.6178 15.52 75.4898 15.48 75.3138 15.48C74.8498 15.48 74.3698 15.6 73.8738 15.84C73.3778 16.064 72.9298 16.424 72.5298 16.92L72.4338 16.296ZM72.8658 16.272V22.392C72.8658 22.728 73.0338 22.912 73.3698 22.944L75.1218 23.136V24H69.4578V23.112L70.5138 22.944C70.8338 22.896 70.9938 22.712 70.9938 22.392V15.888C70.9938 15.536 70.8338 15.336 70.5138 15.288L69.3138 15.144V14.28C69.7778 14.136 70.2738 14.024 70.8018 13.944C71.3458 13.864 71.8498 13.816 72.3138 13.8L72.6018 14.088L72.8658 16.272ZM81.3355 24.192C80.5355 24.192 79.8635 23.984 79.3195 23.568C78.7915 23.152 78.5275 22.552 78.5275 21.768C78.5275 21.096 78.7195 20.568 79.1035 20.184C79.5035 19.784 79.9995 19.496 80.5915 19.32C81.1835 19.144 81.7835 19.032 82.3915 18.984L84.7435 18.792V19.704L82.7035 19.896C81.9995 19.944 81.4555 20.104 81.0715 20.376C80.7035 20.648 80.5195 21.056 80.5195 21.6C80.5195 22.032 80.6395 22.368 80.8795 22.608C81.1355 22.848 81.5115 22.968 82.0075 22.968C82.5355 22.968 83.0555 22.848 83.5675 22.608C84.0955 22.368 84.4955 22.072 84.7675 21.72L84.9835 22.176C84.6475 22.768 84.1515 23.256 83.4955 23.64C82.8555 24.008 82.1355 24.192 81.3355 24.192ZM78.8155 15.888C79.0555 15.216 79.5355 14.704 80.2555 14.352C80.9755 14 81.7995 13.824 82.7275 13.824C83.8955 13.824 84.7675 14.12 85.3435 14.712C85.9195 15.288 86.2075 16.176 86.2075 17.376V22.344C86.2075 22.696 86.3835 22.888 86.7355 22.92L87.7195 23.016V23.832C87.5595 23.88 87.3115 23.944 86.9755 24.024C86.6395 24.104 86.3275 24.144 86.0395 24.144C85.5595 24.144 85.1755 24.008 84.8875 23.736C84.6155 23.464 84.4475 23.064 84.3835 22.536V17.64C84.3835 16.744 84.1995 16.12 83.8315 15.768C83.4795 15.4 82.9355 15.216 82.1995 15.216C81.6555 15.216 81.1355 15.304 80.6395 15.48C80.1435 15.656 79.6875 15.944 79.2715 16.344L78.8155 15.888ZM96.2103 15.144L94.6983 14.88V14.016H98.4903V14.88L97.8423 15.072C97.5703 15.152 97.3943 15.296 97.3143 15.504L94.2183 24.144H93.1383L96.2103 15.144ZM93.8343 24.144H92.5863L89.2263 15.528C89.1143 15.288 88.9463 15.136 88.7223 15.072L88.0743 14.88V14.016H92.7303V14.88L91.2183 15.144L94.1463 23.352L93.8343 24.144ZM99.2262 19.152C99.2262 17.472 99.6422 16.16 100.474 15.216C101.322 14.256 102.458 13.776 103.882 13.776C104.97 13.776 105.85 14.072 106.522 14.664C107.194 15.256 107.53 16.12 107.53 17.256C107.53 17.416 107.522 17.616 107.506 17.856C107.49 18.08 107.466 18.288 107.434 18.48H100.594V17.568H105.634C105.65 17.488 105.658 17.416 105.658 17.352C105.674 17.288 105.682 17.208 105.682 17.112C105.682 16.424 105.498 15.864 105.13 15.432C104.778 14.984 104.274 14.76 103.618 14.76C102.866 14.76 102.274 15.072 101.842 15.696C101.41 16.32 101.194 17.328 101.194 18.72C101.194 19.776 101.322 20.616 101.578 21.24C101.834 21.848 102.178 22.288 102.61 22.56C103.058 22.816 103.57 22.944 104.146 22.944C104.706 22.944 105.226 22.816 105.706 22.56C106.202 22.304 106.594 21.952 106.882 21.504L107.482 21.864C107.274 22.584 106.826 23.16 106.138 23.592C105.466 24.024 104.626 24.24 103.618 24.24C102.626 24.24 101.802 24.024 101.146 23.592C100.506 23.144 100.026 22.544 99.7062 21.792C99.3862 21.024 99.2262 20.144 99.2262 19.152ZM112.611 22.392C112.611 22.712 112.763 22.896 113.067 22.944L114.339 23.136V24H108.987V23.112L110.259 22.944C110.579 22.896 110.739 22.72 110.739 22.416V10.32C110.739 10.016 110.579 9.84 110.259 9.792L108.939 9.6V8.808C109.435 8.664 109.995 8.552 110.619 8.472C111.259 8.376 111.827 8.32 112.323 8.304L112.611 8.592V22.392ZM129.953 20.352C129.953 20.992 129.785 21.608 129.449 22.2C129.129 22.792 128.633 23.272 127.961 23.64C127.289 24.008 126.425 24.192 125.369 24.192C124.441 24.192 123.617 24.072 122.897 23.832C122.193 23.576 121.633 23.312 121.217 23.04C121.201 22.496 121.201 21.96 121.217 21.432C121.249 20.888 121.297 20.328 121.361 19.752H122.273L122.585 21.72C122.601 21.8 122.625 21.896 122.657 22.008C122.705 22.104 122.785 22.208 122.897 22.32C123.153 22.576 123.505 22.808 123.953 23.016C124.417 23.224 124.945 23.328 125.537 23.328C126.481 23.328 127.193 23.104 127.673 22.656C128.169 22.192 128.417 21.568 128.417 20.784C128.417 20.192 128.289 19.728 128.033 19.392C127.777 19.04 127.409 18.744 126.929 18.504C126.465 18.248 125.913 17.976 125.273 17.688C124.729 17.448 124.161 17.168 123.569 16.848C122.977 16.512 122.481 16.088 122.081 15.576C121.681 15.064 121.481 14.408 121.481 13.608C121.481 12.616 121.849 11.8 122.585 11.16C123.321 10.504 124.393 10.176 125.801 10.176C126.409 10.176 127.025 10.24 127.649 10.368C128.273 10.496 128.809 10.672 129.257 10.896C129.289 11.472 129.297 12.016 129.281 12.528C129.265 13.024 129.217 13.52 129.137 14.016H128.249L127.913 12.288C127.897 12.192 127.865 12.096 127.817 12C127.769 11.888 127.681 11.776 127.553 11.664C127.361 11.488 127.073 11.336 126.689 11.208C126.305 11.08 125.881 11.016 125.417 11.016C124.585 11.016 123.953 11.208 123.521 11.592C123.089 11.96 122.873 12.496 122.873 13.2C122.873 13.76 123.001 14.216 123.257 14.568C123.513 14.92 123.889 15.232 124.385 15.504C124.897 15.776 125.505 16.08 126.209 16.416C126.833 16.704 127.425 17.008 127.985 17.328C128.561 17.648 129.033 18.048 129.401 18.528C129.769 18.992 129.953 19.6 129.953 20.352ZM133.144 15.216L131.584 15.048V14.328L132.688 14.184C132.848 14.152 132.968 14.104 133.048 14.04C133.144 13.96 133.2 13.848 133.216 13.704L133.744 11.184H134.608V14.088H138.04V15.144H134.608V21.096C134.608 21.88 134.744 22.4 135.016 22.656C135.288 22.912 135.656 23.04 136.12 23.04C136.536 23.04 136.904 22.968 137.224 22.824C137.56 22.664 137.84 22.456 138.064 22.2L138.568 22.632C138.312 23.128 137.928 23.512 137.416 23.784C136.904 24.056 136.344 24.192 135.736 24.192C135.304 24.192 134.888 24.128 134.488 24C134.088 23.856 133.76 23.6 133.504 23.232C133.264 22.864 133.144 22.344 133.144 21.672V15.216ZM142.624 16.152C142.8 15.848 143.08 15.52 143.464 15.168C143.848 14.8 144.296 14.488 144.808 14.232C145.32 13.976 145.832 13.848 146.344 13.848C146.52 13.848 146.712 13.872 146.92 13.92C147.128 13.952 147.312 14.008 147.472 14.088C147.504 14.568 147.496 15.104 147.448 15.696C147.416 16.272 147.352 16.792 147.256 17.256H146.512L146.272 15.792C146.24 15.6 146.176 15.464 146.08 15.384C146 15.304 145.88 15.264 145.72 15.264C145.176 15.264 144.632 15.392 144.088 15.648C143.56 15.888 143.08 16.288 142.648 16.848L142.624 16.152ZM142.96 16.128V22.512C142.96 22.848 143.136 23.032 143.488 23.064L145.336 23.256V24H139.912V23.232L141.016 23.064C141.352 23.016 141.52 22.832 141.52 22.512V15.816C141.52 15.448 141.352 15.24 141.016 15.192L139.768 15.048V14.328C140.2 14.2 140.664 14.096 141.16 14.016C141.656 13.936 142.12 13.888 142.552 13.872L142.768 14.112L142.96 16.128ZM156.924 22.44C156.508 22.92 156.02 23.336 155.46 23.688C154.9 24.024 154.228 24.192 153.444 24.192C152.324 24.192 151.524 23.888 151.044 23.28C150.564 22.672 150.324 21.744 150.324 20.496V15.744C150.324 15.424 150.164 15.232 149.844 15.168L148.716 15V14.28C149.164 14.152 149.636 14.056 150.132 13.992C150.628 13.928 151.1 13.888 151.548 13.872L151.764 14.112V20.184C151.764 21.16 151.9 21.896 152.172 22.392C152.46 22.872 153.02 23.112 153.852 23.112C154.396 23.112 154.916 23.016 155.412 22.824C155.908 22.616 156.356 22.296 156.756 21.864L156.924 22.44ZM159.54 23.832C159.348 23.896 159.1 23.96 158.796 24.024C158.508 24.104 158.236 24.144 157.98 24.144C157.468 24.144 157.1 23.976 156.876 23.64C156.668 23.304 156.548 22.92 156.516 22.488V15.744C156.516 15.408 156.356 15.216 156.036 15.168L154.644 14.976V14.256C155.108 14.128 155.628 14.032 156.204 13.968C156.78 13.904 157.292 13.872 157.74 13.872L157.956 14.112V22.464C157.956 22.672 158.004 22.816 158.1 22.896C158.196 22.976 158.324 23.024 158.484 23.04L159.54 23.136V23.832ZM161.267 19.2C161.267 18.208 161.435 17.312 161.771 16.512C162.107 15.696 162.627 15.048 163.331 14.568C164.035 14.088 164.923 13.848 165.995 13.848C166.523 13.848 167.059 13.904 167.603 14.016C168.163 14.128 168.611 14.272 168.947 14.448C168.979 14.848 168.971 15.304 168.923 15.816C168.891 16.328 168.843 16.792 168.779 17.208H168.011L167.675 15.864C167.643 15.704 167.603 15.568 167.555 15.456C167.523 15.344 167.443 15.24 167.315 15.144C167.155 15.016 166.939 14.912 166.667 14.832C166.395 14.752 166.091 14.712 165.755 14.712C164.827 14.712 164.115 15.056 163.619 15.744C163.123 16.432 162.875 17.448 162.875 18.792C162.875 20.264 163.155 21.36 163.715 22.08C164.275 22.8 165.027 23.16 165.971 23.16C166.531 23.16 167.027 23.048 167.459 22.824C167.907 22.6 168.275 22.328 168.563 22.008L169.043 22.44C168.739 23.016 168.283 23.464 167.675 23.784C167.083 24.088 166.387 24.24 165.587 24.24C164.659 24.24 163.867 24.024 163.211 23.592C162.571 23.16 162.083 22.568 161.747 21.816C161.427 21.048 161.267 20.176 161.267 19.2ZM172.191 15.216L170.631 15.048V14.328L171.735 14.184C171.895 14.152 172.015 14.104 172.095 14.04C172.191 13.96 172.247 13.848 172.263 13.704L172.791 11.184H173.655V14.088H177.087V15.144H173.655V21.096C173.655 21.88 173.791 22.4 174.063 22.656C174.335 22.912 174.703 23.04 175.167 23.04C175.583 23.04 175.951 22.968 176.271 22.824C176.607 22.664 176.887 22.456 177.111 22.2L177.615 22.632C177.359 23.128 176.975 23.512 176.463 23.784C175.951 24.056 175.391 24.192 174.783 24.192C174.351 24.192 173.935 24.128 173.535 24C173.135 23.856 172.807 23.6 172.551 23.232C172.311 22.864 172.191 22.344 172.191 21.672V15.216Z" fill="#333333"/>
<path d="M56.416 19.848L56.4402 19.6495L56.2769 19.6296L56.2259 19.7859L56.416 19.848ZM57.4 19.968L57.5999 19.9731L57.6046 19.7915L57.4242 19.7695L57.4 19.968ZM57.304 21.984L57.5035 21.9976L57.5036 21.9973L57.304 21.984ZM57.016 24V24.2H57.176L57.2111 24.0439L57.016 24ZM46.96 24H46.76V24.2H46.96V24ZM46.96 23.112L46.926 22.9149L46.76 22.9435V23.112H46.96ZM48.352 22.872L48.3208 22.6744L48.318 22.6749L48.352 22.872ZM48.352 11.496L48.3147 11.6926L48.3208 11.6936L48.352 11.496ZM46.96 11.232H46.76V11.3976L46.9227 11.4285L46.96 11.232ZM46.96 10.344V10.144H46.76V10.344H46.96ZM53.032 10.344H53.232V10.144H53.032V10.344ZM53.032 11.232L53.0632 11.4296L53.232 11.4029V11.232H53.032ZM51.208 11.52L51.1768 11.3222L51.1668 11.3243L51.208 11.52ZM50.752 22.944H50.552V23.144H50.752V22.944ZM54.328 22.896L54.309 22.6969L54.3081 22.697L54.328 22.896ZM55.144 22.728L55.0738 22.5407L55.0722 22.5413L55.144 22.728ZM55.648 22.2L55.4579 22.1379L55.4571 22.1403L55.648 22.2ZM56.3918 20.0465L57.3758 20.1665L57.4242 19.7695L56.4402 19.6495L56.3918 20.0465ZM57.2001 19.9629C57.1841 20.5838 57.1523 21.253 57.1044 21.9707L57.5036 21.9973C57.5517 21.275 57.5839 20.6002 57.5999 19.9731L57.2001 19.9629ZM57.1045 21.9704C57.0571 22.665 56.9625 23.3268 56.8209 23.9561L57.2111 24.0439C57.3575 23.3932 57.4549 22.711 57.5035 21.9976L57.1045 21.9704ZM57.016 23.8H46.96V24.2H57.016V23.8ZM47.16 24V23.112H46.76V24H47.16ZM46.994 23.3091L48.386 23.0691L48.318 22.6749L46.926 22.9149L46.994 23.3091ZM48.3832 23.0696C48.5691 23.0402 48.733 22.9648 48.8482 22.8254C48.9626 22.6869 49.008 22.5106 49.008 22.32H48.608C48.608 22.4494 48.5774 22.5251 48.5398 22.5706C48.503 22.6152 48.4389 22.6558 48.3208 22.6744L48.3832 23.0696ZM49.008 22.32V12.048H48.608V22.32H49.008ZM49.008 12.048C49.008 11.8574 48.9626 11.6811 48.8482 11.5426C48.733 11.4032 48.5691 11.3278 48.3832 11.2984L48.3208 11.6936C48.4389 11.7122 48.503 11.7528 48.5398 11.7974C48.5774 11.8429 48.608 11.9186 48.608 12.048H49.008ZM48.3893 11.2995L46.9973 11.0355L46.9227 11.4285L48.3147 11.6925L48.3893 11.2995ZM47.16 11.232V10.344H46.76V11.232H47.16ZM46.96 10.544H53.032V10.144H46.96V10.544ZM52.832 10.344V11.232H53.232V10.344H52.832ZM53.0008 11.0344L51.1768 11.3224L51.2392 11.7176L53.0632 11.4296L53.0008 11.0344ZM51.1668 11.3243C50.984 11.3628 50.8243 11.4424 50.7118 11.5786C50.5989 11.7153 50.552 11.8865 50.552 12.072H50.952C50.952 11.9535 50.9811 11.8806 51.0202 11.8334C51.0597 11.7856 51.128 11.7412 51.2492 11.7157L51.1668 11.3243ZM50.552 12.072V22.944H50.952V12.072H50.552ZM50.752 23.144H53.224V22.744H50.752V23.144ZM53.224 23.144C53.6448 23.144 54.0197 23.1278 54.3479 23.095L54.3081 22.697C53.9963 22.7282 53.6352 22.744 53.224 22.744V23.144ZM54.347 23.0951C54.6928 23.0622 54.9845 23.0036 55.2158 22.9147L55.0722 22.5413C54.8875 22.6124 54.6352 22.6658 54.309 22.6969L54.347 23.0951ZM55.2142 22.9153C55.5267 22.7981 55.7401 22.5758 55.8389 22.2597L55.4571 22.1403C55.3959 22.3362 55.2733 22.4659 55.0738 22.5407L55.2142 22.9153ZM55.8381 22.2621L56.6061 19.9101L56.2259 19.7859L55.4579 22.1379L55.8381 22.2621ZM59.6789 23.568L59.5551 23.7251L59.5574 23.7269L59.6789 23.568ZM59.4629 20.184L59.6043 20.3254L59.4629 20.184ZM60.9509 19.32L61.0079 19.5117H61.0079L60.9509 19.32ZM62.7509 18.984L62.7666 19.1834L62.7671 19.1833L62.7509 18.984ZM65.1029 18.792H65.3029V18.575L65.0866 18.5927L65.1029 18.792ZM65.1029 19.704L65.1216 19.9031L65.3029 19.8861V19.704H65.1029ZM63.0629 19.896L63.0765 20.0956L63.0816 20.0951L63.0629 19.896ZM61.4309 20.376L61.3152 20.2128L61.312 20.2152L61.4309 20.376ZM61.2389 22.608L61.0974 22.7495L61.1021 22.7539L61.2389 22.608ZM63.9269 22.608L63.8441 22.4259L63.842 22.4269L63.9269 22.608ZM65.1269 21.72L65.3076 21.6344L65.168 21.3397L64.9686 21.5977L65.1269 21.72ZM65.3429 22.176L65.5168 22.2747L65.5681 22.1843L65.5236 22.0904L65.3429 22.176ZM63.8549 23.64L63.9546 23.8134L63.9559 23.8126L63.8549 23.64ZM59.1749 15.888L58.9865 15.8207L58.944 15.9399L59.0335 16.0294L59.1749 15.888ZM60.6149 14.352L60.7027 14.5317L60.6149 14.352ZM65.7029 14.712L65.5595 14.8515L65.5615 14.8534L65.7029 14.712ZM67.0949 22.92L67.1143 22.7209L67.113 22.7208L67.0949 22.92ZM68.0789 23.016H68.2789V22.8346L68.0983 22.8169L68.0789 23.016ZM68.0789 23.832L68.1363 24.0236L68.2789 23.9808V23.832H68.0789ZM67.3349 24.024L67.3812 24.2186L67.3349 24.024ZM65.2469 23.736L65.1054 23.8775L65.1096 23.8814L65.2469 23.736ZM64.7429 22.536H64.5429V22.5481L64.5443 22.5601L64.7429 22.536ZM64.1909 15.768L64.0462 15.9064L64.0526 15.9125L64.1909 15.768ZM60.9989 15.48L60.932 15.2915L60.9989 15.48ZM59.6309 16.344L59.4895 16.4854L59.6281 16.6241L59.7695 16.4882L59.6309 16.344ZM61.6949 23.992C60.9311 23.992 60.3038 23.7941 59.8004 23.4091L59.5574 23.7269C60.1419 24.1739 60.8586 24.392 61.6949 24.392V23.992ZM59.8026 23.4109C59.3311 23.0394 59.0869 22.5022 59.0869 21.768H58.6869C58.6869 22.6018 58.9706 23.2646 59.5551 23.7251L59.8026 23.4109ZM59.0869 21.768C59.0869 21.1357 59.2663 20.6634 59.6043 20.3254L59.3215 20.0426C58.8915 20.4726 58.6869 21.0563 58.6869 21.768H59.0869ZM59.6043 20.3254C59.9787 19.9511 60.4448 19.6791 61.0079 19.5117L60.8939 19.1283C60.273 19.3129 59.7471 19.6169 59.3215 20.0426L59.6043 20.3254ZM61.0079 19.5117C61.5866 19.3397 62.1728 19.2303 62.7666 19.1834L62.7351 18.7846C62.113 18.8337 61.4992 18.9483 60.8939 19.1283L61.0079 19.5117ZM62.7671 19.1833L65.1191 18.9913L65.0866 18.5927L62.7346 18.7847L62.7671 19.1833ZM64.9029 18.792V19.704H65.3029V18.792H64.9029ZM65.0841 19.5049L63.0441 19.6969L63.0816 20.0951L65.1216 19.9031L65.0841 19.5049ZM63.0493 19.6965C62.3256 19.7458 61.7407 19.9114 61.3153 20.2128L61.5465 20.5392C61.8891 20.2965 62.3921 20.1422 63.0765 20.0955L63.0493 19.6965ZM61.312 20.2152C60.883 20.5323 60.6789 21.0061 60.6789 21.6H61.0789C61.0789 21.1059 61.2428 20.7637 61.5498 20.5368L61.312 20.2152ZM60.6789 21.6C60.6789 22.0699 60.8104 22.4624 61.0975 22.7494L61.3803 22.4666C61.1873 22.2736 61.0789 21.9941 61.0789 21.6H60.6789ZM61.1021 22.7539C61.4081 23.0408 61.8411 23.168 62.3669 23.168V22.768C61.9006 22.768 61.5817 22.6552 61.3757 22.4621L61.1021 22.7539ZM62.3669 23.168C62.9263 23.168 63.4751 23.0406 64.0118 22.7891L63.842 22.4269C63.3546 22.6554 62.8635 22.768 62.3669 22.768V23.168ZM64.0096 22.7901C64.5586 22.5406 64.9881 22.2267 65.2851 21.8423L64.9686 21.5977C64.7217 21.9173 64.3512 22.1954 63.8441 22.4259L64.0096 22.7901ZM64.9461 21.8056L65.1621 22.2616L65.5236 22.0904L65.3076 21.6344L64.9461 21.8056ZM65.1689 22.0773C64.8523 22.6352 64.3831 23.0991 63.7538 23.4674L63.9559 23.8126C64.6387 23.4129 65.1615 22.9008 65.5168 22.2747L65.1689 22.0773ZM63.7552 23.4666C63.148 23.8157 62.4629 23.992 61.6949 23.992V24.392C62.5268 24.392 63.2817 24.2003 63.9546 23.8134L63.7552 23.4666ZM59.3632 15.9553C59.5835 15.3386 60.0233 14.8638 60.7027 14.5317L60.527 14.1723C59.7664 14.5442 59.2463 15.0934 58.9865 15.8207L59.3632 15.9553ZM60.7027 14.5317C61.3914 14.195 62.1845 14.024 63.0869 14.024V13.624C62.1332 13.624 61.2784 13.805 60.527 14.1723L60.7027 14.5317ZM63.0869 14.024C64.2236 14.024 65.0345 14.3119 65.5595 14.8515L65.8462 14.5725C65.2192 13.9281 64.2862 13.624 63.0869 13.624V14.024ZM65.5615 14.8534C66.0854 15.3773 66.3669 16.2041 66.3669 17.376H66.7669C66.7669 16.1479 66.4724 15.1987 65.8443 14.5706L65.5615 14.8534ZM66.3669 17.376V22.344H66.7669V17.376H66.3669ZM66.3669 22.344C66.3669 22.5522 66.4192 22.7429 66.5514 22.8871C66.6835 23.0312 66.8691 23.1003 67.0768 23.1192L67.113 22.7208C66.9686 22.7077 66.8902 22.6648 66.8463 22.6169C66.8025 22.5691 66.7669 22.4878 66.7669 22.344H66.3669ZM67.0755 23.1191L68.0595 23.2151L68.0983 22.8169L67.1143 22.7209L67.0755 23.1191ZM67.8789 23.016V23.832H68.2789V23.016H67.8789ZM68.0214 23.6404C67.8672 23.6867 67.6239 23.7496 67.2886 23.8294L67.3812 24.2186C67.7179 24.1384 67.9705 24.0733 68.1363 24.0236L68.0214 23.6404ZM67.2886 23.8294C66.9648 23.9065 66.6685 23.944 66.3989 23.944V24.344C66.7052 24.344 67.0329 24.3015 67.3812 24.2186L67.2886 23.8294ZM66.3989 23.944C65.9585 23.944 65.6275 23.8204 65.3842 23.5906L65.1096 23.8814C65.4422 24.1956 65.8792 24.344 66.3989 24.344V23.944ZM65.3883 23.5946C65.1581 23.3644 65.0021 23.0123 64.9414 22.5119L64.5443 22.5601C64.6117 23.1157 64.7917 23.5636 65.1055 23.8774L65.3883 23.5946ZM64.9429 22.536V17.64H64.5429V22.536H64.9429ZM64.9429 17.64C64.9429 16.7279 64.7577 16.0334 64.3291 15.6235L64.0526 15.9125C64.3601 16.2066 64.5429 16.7601 64.5429 17.64H64.9429ZM64.3354 15.6298C63.9315 15.2075 63.3249 15.016 62.5589 15.016V15.416C63.2648 15.416 63.7462 15.5925 64.0463 15.9062L64.3354 15.6298ZM62.5589 15.016C61.9929 15.016 61.4502 15.1076 60.932 15.2915L61.0658 15.6685C61.5396 15.5004 62.0369 15.416 62.5589 15.416V15.016ZM60.932 15.2915C60.4067 15.4779 59.9267 15.7821 59.4923 16.1998L59.7695 16.4882C60.167 16.1059 60.599 15.8341 61.0658 15.6685L60.932 15.2915ZM59.7723 16.2026L59.3163 15.7466L59.0335 16.0294L59.4895 16.4854L59.7723 16.2026ZM72.4338 16.296L72.2579 16.2007L72.2258 16.2599L72.2361 16.3264L72.4338 16.296ZM73.2978 15.144L73.1535 15.0055L73.1534 15.0056L73.2978 15.144ZM74.5938 14.16L74.502 13.9823L74.4996 13.9835L74.5938 14.16ZM76.7058 13.848L76.6638 14.0436L76.6665 14.0441L76.7058 13.848ZM77.3057 14.04L77.5053 14.0267L77.4977 13.9124L77.3952 13.8611L77.3057 14.04ZM77.2817 15.696L77.0823 15.6807L77.082 15.6855L77.2817 15.696ZM77.0658 17.376V17.576H77.2267L77.2611 17.4187L77.0658 17.376ZM76.1777 17.376L75.9814 17.4139L76.0127 17.576H76.1777V17.376ZM75.9137 16.008L76.1104 15.97L76.1078 15.9595L75.9137 16.008ZM75.6978 15.6L75.5563 15.7414L75.5627 15.7478L75.5697 15.7536L75.6978 15.6ZM73.8738 15.84L73.9561 16.0223L73.9609 16.02L73.8738 15.84ZM72.5298 16.92L72.3321 16.9504L72.401 17.3983L72.6854 17.0456L72.5298 16.92ZM72.8657 16.272H73.0658V16.26L73.0643 16.248L72.8657 16.272ZM73.3698 22.944L73.3915 22.7452L73.3887 22.7449L73.3698 22.944ZM75.1217 23.136H75.3218V22.9567L75.1435 22.9372L75.1217 23.136ZM75.1217 24V24.2H75.3218V24H75.1217ZM69.4578 24H69.2577V24.2H69.4578V24ZM69.4578 23.112L69.4263 22.9145L69.2577 22.9413V23.112H69.4578ZM70.5138 22.944L70.4841 22.7462L70.4823 22.7465L70.5138 22.944ZM70.5138 15.288L70.5434 15.0901L70.5376 15.0894L70.5138 15.288ZM69.3137 15.144H69.1138V15.3214L69.2899 15.3426L69.3137 15.144ZM69.3137 14.28L69.2545 14.089L69.1138 14.1327V14.28H69.3137ZM70.8018 13.944L70.7727 13.7461L70.7718 13.7463L70.8018 13.944ZM72.3137 13.8L72.4552 13.6586L72.3937 13.5971L72.3069 13.6001L72.3137 13.8ZM72.6017 14.088L72.8003 14.064L72.792 13.9954L72.7432 13.9466L72.6017 14.088ZM72.6096 16.3913C72.8075 16.0259 73.0839 15.6562 73.4421 15.2824L73.1534 15.0056C72.7756 15.3998 72.476 15.7981 72.2579 16.2007L72.6096 16.3913ZM73.442 15.2825C73.8117 14.8974 74.2268 14.5823 74.6879 14.3365L74.4996 13.9835C74.0007 14.2497 73.5518 14.5906 73.1535 15.0055L73.442 15.2825ZM74.6855 14.3377C75.1557 14.095 75.6285 13.976 76.1058 13.976V13.576C75.559 13.576 75.0238 13.713 74.502 13.9823L74.6855 14.3377ZM76.1058 13.976C76.2642 13.976 76.4497 13.9977 76.6638 14.0436L76.7477 13.6524C76.5138 13.6023 76.2993 13.576 76.1058 13.576V13.976ZM76.6665 14.0441C76.895 14.0898 77.0768 14.1491 77.2163 14.2189L77.3952 13.8611C77.2147 13.7709 76.9965 13.7022 76.745 13.6519L76.6665 14.0441ZM77.1062 14.0533C77.1374 14.5214 77.1298 15.0635 77.0823 15.6807L77.4812 15.7113C77.5297 15.0805 77.5381 14.5186 77.5053 14.0267L77.1062 14.0533ZM77.082 15.6855C77.0505 16.2843 76.9797 16.8334 76.8704 17.3333L77.2611 17.4187C77.3758 16.8946 77.449 16.3237 77.4815 15.7065L77.082 15.6855ZM77.0658 17.176H76.1777V17.576H77.0658V17.176ZM76.3741 17.3381L76.1101 15.9701L75.7174 16.0459L75.9814 17.4139L76.3741 17.3381ZM76.1078 15.9595C76.0551 15.7486 75.9684 15.5652 75.8258 15.4464L75.5697 15.7536C75.6191 15.7948 75.6764 15.8834 75.7197 16.0565L76.1078 15.9595ZM75.8392 15.4586C75.7053 15.3248 75.5141 15.28 75.3137 15.28V15.68C75.4654 15.68 75.5302 15.7152 75.5563 15.7414L75.8392 15.4586ZM75.3137 15.28C74.8144 15.28 74.3048 15.4093 73.7866 15.66L73.9609 16.02C74.4347 15.7907 74.8851 15.68 75.3137 15.68V15.28ZM73.7914 15.6577C73.2624 15.8967 72.7904 16.2782 72.3741 16.7944L72.6854 17.0456C73.0691 16.5698 73.4931 16.2313 73.9561 16.0223L73.7914 15.6577ZM72.7274 16.8896L72.6314 16.2656L72.2361 16.3264L72.3321 16.9504L72.7274 16.8896ZM72.6658 16.272V22.392H73.0658V16.272H72.6658ZM72.6658 22.392C72.6658 22.5922 72.7161 22.7768 72.8441 22.9169C72.9718 23.0568 73.1511 23.1241 73.3508 23.1431L73.3887 22.7449C73.2524 22.7319 73.1797 22.6912 73.1394 22.6471C73.0994 22.6032 73.0658 22.5278 73.0658 22.392H72.6658ZM73.348 23.1428L75.1 23.3348L75.1435 22.9372L73.3915 22.7452L73.348 23.1428ZM74.9218 23.136V24H75.3218V23.136H74.9218ZM75.1217 23.8H69.4578V24.2H75.1217V23.8ZM69.6577 24V23.112H69.2577V24H69.6577ZM69.4892 23.3095L70.5452 23.1415L70.4823 22.7465L69.4263 22.9145L69.4892 23.3095ZM70.5434 23.1418C70.7349 23.1131 70.9045 23.0394 71.0247 22.9012C71.1451 22.7627 71.1938 22.5849 71.1938 22.392H70.7938C70.7938 22.5191 70.7624 22.5933 70.7228 22.6388C70.683 22.6846 70.6126 22.7269 70.4841 22.7462L70.5434 23.1418ZM71.1938 22.392V15.888H70.7938V22.392H71.1938ZM71.1938 15.888C71.1938 15.6834 71.1473 15.4957 71.0299 15.3491C70.9108 15.2001 70.7396 15.1196 70.5434 15.0902L70.4841 15.4858C70.6079 15.5044 70.6767 15.5479 70.7176 15.5989C70.7602 15.6523 70.7938 15.7406 70.7938 15.888H71.1938ZM70.5376 15.0894L69.3376 14.9454L69.2899 15.3426L70.4899 15.4866L70.5376 15.0894ZM69.5138 15.144V14.28H69.1138V15.144H69.5138ZM69.373 14.471C69.8266 14.3303 70.3127 14.2204 70.8317 14.1417L70.7718 13.7463C70.2348 13.8276 69.7289 13.9417 69.2545 14.089L69.373 14.471ZM70.8308 14.1419C71.3688 14.0628 71.8653 14.0156 72.3206 13.9999L72.3069 13.6001C71.8342 13.6164 71.3227 13.6652 70.7727 13.7461L70.8308 14.1419ZM72.1723 13.9414L72.4603 14.2294L72.7432 13.9466L72.4552 13.6586L72.1723 13.9414ZM72.4032 14.112L72.6672 16.296L73.0643 16.248L72.8003 14.064L72.4032 14.112ZM79.3195 23.568L79.1957 23.7251L79.198 23.7269L79.3195 23.568ZM79.1035 20.184L79.2449 20.3254L79.1035 20.184ZM80.5915 19.32L80.6485 19.5117L80.5915 19.32ZM82.3915 18.984L82.4072 19.1834L82.4078 19.1833L82.3915 18.984ZM84.7435 18.792H84.9435V18.575L84.7272 18.5927L84.7435 18.792ZM84.7435 19.704L84.7622 19.9031L84.9435 19.8861V19.704H84.7435ZM82.7035 19.896L82.7171 20.0956L82.7222 20.0951L82.7035 19.896ZM81.0715 20.376L80.9559 20.2128L80.9526 20.2152L81.0715 20.376ZM80.8795 22.608L80.738 22.7495L80.7427 22.7539L80.8795 22.608ZM83.5675 22.608L83.4847 22.4259L83.4826 22.4269L83.5675 22.608ZM84.7675 21.72L84.9482 21.6344L84.8086 21.3397L84.6092 21.5977L84.7675 21.72ZM84.9835 22.176L85.1574 22.2747L85.2087 22.1843L85.1642 22.0904L84.9835 22.176ZM83.4955 23.64L83.5952 23.8134L83.5965 23.8126L83.4955 23.64ZM78.8155 15.888L78.6272 15.8207L78.5846 15.9399L78.6741 16.0294L78.8155 15.888ZM80.2555 14.352L80.3433 14.5317L80.2555 14.352ZM85.3435 14.712L85.2001 14.8515L85.2021 14.8534L85.3435 14.712ZM86.7355 22.92L86.7549 22.7209L86.7536 22.7208L86.7355 22.92ZM87.7195 23.016H87.9195V22.8346L87.7389 22.8169L87.7195 23.016ZM87.7195 23.832L87.777 24.0236L87.9195 23.9808V23.832H87.7195ZM86.9755 24.024L87.0218 24.2186L86.9755 24.024ZM84.8875 23.736L84.746 23.8775L84.7502 23.8814L84.8875 23.736ZM84.3835 22.536H84.1835V22.5481L84.185 22.5601L84.3835 22.536ZM83.8315 15.768L83.6868 15.9064L83.6933 15.9125L83.8315 15.768ZM80.6395 15.48L80.5726 15.2915L80.6395 15.48ZM79.2715 16.344L79.1301 16.4854L79.2688 16.6241L79.4101 16.4882L79.2715 16.344ZM81.3355 23.992C80.5717 23.992 79.9445 23.7941 79.441 23.4091L79.198 23.7269C79.7825 24.1739 80.4993 24.392 81.3355 24.392V23.992ZM79.4433 23.4109C78.9717 23.0394 78.7275 22.5022 78.7275 21.768H78.3275C78.3275 22.6018 78.6113 23.2646 79.1957 23.7251L79.4433 23.4109ZM78.7275 21.768C78.7275 21.1357 78.9069 20.6634 79.2449 20.3254L78.9621 20.0426C78.5321 20.4726 78.3275 21.0563 78.3275 21.768H78.7275ZM79.2449 20.3254C79.6193 19.9511 80.0854 19.6791 80.6485 19.5117L80.5345 19.1283C79.9136 19.3129 79.3877 19.6169 78.9621 20.0426L79.2449 20.3254ZM80.6485 19.5117C81.2272 19.3397 81.8134 19.2303 82.4072 19.1834L82.3758 18.7846C81.7536 18.8337 81.1398 18.9483 80.5345 19.1283L80.6485 19.5117ZM82.4078 19.1833L84.7598 18.9913L84.7272 18.5927L82.3752 18.7847L82.4078 19.1833ZM84.5435 18.792V19.704H84.9435V18.792H84.5435ZM84.7248 19.5049L82.6848 19.6969L82.7222 20.0951L84.7622 19.9031L84.7248 19.5049ZM82.6899 19.6965C81.9663 19.7458 81.3813 19.9114 80.9559 20.2128L81.1871 20.5392C81.5297 20.2965 82.0327 20.1422 82.7171 20.0955L82.6899 19.6965ZM80.9526 20.2152C80.5236 20.5323 80.3195 21.0061 80.3195 21.6H80.7195C80.7195 21.1059 80.8834 20.7637 81.1904 20.5368L80.9526 20.2152ZM80.3195 21.6C80.3195 22.0699 80.451 22.4624 80.7381 22.7494L81.0209 22.4666C80.828 22.2736 80.7195 21.9941 80.7195 21.6H80.3195ZM80.7427 22.7539C81.0487 23.0408 81.4817 23.168 82.0075 23.168V22.768C81.5413 22.768 81.2223 22.6552 81.0163 22.4621L80.7427 22.7539ZM82.0075 23.168C82.5669 23.168 83.1157 23.0406 83.6524 22.7891L83.4826 22.4269C82.9953 22.6554 82.5041 22.768 82.0075 22.768V23.168ZM83.6503 22.7901C84.1992 22.5406 84.6287 22.2267 84.9258 21.8423L84.6092 21.5977C84.3623 21.9173 83.9918 22.1954 83.4847 22.4259L83.6503 22.7901ZM84.5868 21.8056L84.8028 22.2616L85.1642 22.0904L84.9482 21.6344L84.5868 21.8056ZM84.8096 22.0773C84.4929 22.6352 84.0237 23.0991 83.3945 23.4674L83.5965 23.8126C84.2793 23.4129 84.8021 22.9008 85.1574 22.2747L84.8096 22.0773ZM83.3958 23.4666C82.7887 23.8157 82.1035 23.992 81.3355 23.992V24.392C82.1675 24.392 82.9224 24.2003 83.5952 23.8134L83.3958 23.4666ZM79.0038 15.9553C79.2241 15.3386 79.6639 14.8638 80.3433 14.5317L80.1677 14.1723C79.4071 14.5442 78.8869 15.0934 78.6272 15.8207L79.0038 15.9553ZM80.3433 14.5317C81.032 14.195 81.8251 14.024 82.7275 14.024V13.624C81.7739 13.624 80.919 13.805 80.1677 14.1723L80.3433 14.5317ZM82.7275 14.024C83.8642 14.024 84.6751 14.3119 85.2002 14.8515L85.4868 14.5725C84.8599 13.9281 83.9268 13.624 82.7275 13.624V14.024ZM85.2021 14.8534C85.726 15.3773 86.0075 16.2041 86.0075 17.376H86.4075C86.4075 16.1479 86.113 15.1987 85.4849 14.5706L85.2021 14.8534ZM86.0075 17.376V22.344H86.4075V17.376H86.0075ZM86.0075 22.344C86.0075 22.5522 86.0599 22.7429 86.1921 22.8871C86.3242 23.0312 86.5097 23.1003 86.7174 23.1192L86.7536 22.7208C86.6093 22.7077 86.5308 22.6648 86.4869 22.6169C86.4431 22.5691 86.4075 22.4878 86.4075 22.344H86.0075ZM86.7161 23.1191L87.7001 23.2151L87.7389 22.8169L86.7549 22.7209L86.7161 23.1191ZM87.5195 23.016V23.832H87.9195V23.016H87.5195ZM87.662 23.6404C87.5078 23.6867 87.2645 23.7496 86.9292 23.8294L87.0218 24.2186C87.3585 24.1384 87.6112 24.0733 87.777 24.0236L87.662 23.6404ZM86.9292 23.8294C86.6054 23.9065 86.3092 23.944 86.0395 23.944V24.344C86.3458 24.344 86.6736 24.3015 87.0218 24.2186L86.9292 23.8294ZM86.0395 23.944C85.5991 23.944 85.2681 23.8204 85.0248 23.5906L84.7502 23.8814C85.0829 24.1956 85.5199 24.344 86.0395 24.344V23.944ZM85.0289 23.5946C84.7987 23.3644 84.6427 23.0123 84.582 22.5119L84.185 22.5601C84.2523 23.1157 84.4323 23.5636 84.7461 23.8774L85.0289 23.5946ZM84.5835 22.536V17.64H84.1835V22.536H84.5835ZM84.5835 17.64C84.5835 16.7279 84.3983 16.0334 83.9697 15.6235L83.6933 15.9125C84.0007 16.2066 84.1835 16.7601 84.1835 17.64H84.5835ZM83.976 15.6298C83.5722 15.2075 82.9655 15.016 82.1995 15.016V15.416C82.9055 15.416 83.3868 15.5925 83.687 15.9062L83.976 15.6298ZM82.1995 15.016C81.6335 15.016 81.0908 15.1076 80.5726 15.2915L80.7064 15.6685C81.1802 15.5004 81.6775 15.416 82.1995 15.416V15.016ZM80.5726 15.2915C80.0473 15.4779 79.5674 15.7821 79.1329 16.1998L79.4101 16.4882C79.8076 16.1059 80.2397 15.8341 80.7064 15.6685L80.5726 15.2915ZM79.4129 16.2026L78.9569 15.7466L78.6741 16.0294L79.1301 16.4854L79.4129 16.2026ZM96.2103 15.144L96.3995 15.2086L96.4751 14.9872L96.2447 14.947L96.2103 15.144ZM94.6982 14.88H94.4982V15.0481L94.6638 15.077L94.6982 14.88ZM94.6982 14.016V13.816H94.4982V14.016H94.6982ZM98.4902 14.016H98.6903V13.816H98.4902V14.016ZM98.4902 14.88L98.5471 15.0718L98.6903 15.0293V14.88H98.4902ZM97.8423 15.072L97.8987 15.2639L97.8991 15.2638L97.8423 15.072ZM97.3143 15.504L97.1275 15.4322L97.126 15.4365L97.3143 15.504ZM94.2183 24.144V24.344H94.359L94.4065 24.2115L94.2183 24.144ZM93.1382 24.144L92.949 24.0794L92.8587 24.344H93.1382V24.144ZM93.8343 24.144V24.344H93.9704L94.0203 24.2173L93.8343 24.144ZM92.5863 24.144L92.3999 24.2167L92.4496 24.344H92.5863V24.144ZM89.2262 15.528L89.413 15.4552L89.4075 15.4434L89.2262 15.528ZM88.7223 15.072L88.6654 15.2638L88.6673 15.2643L88.7223 15.072ZM88.0742 14.88H87.8742V15.0293L88.0174 15.0718L88.0742 14.88ZM88.0742 14.016V13.816H87.8742V14.016H88.0742ZM92.7303 14.016H92.9302V13.816H92.7303V14.016ZM92.7303 14.88L92.7647 15.077L92.9302 15.0481V14.88H92.7303ZM91.2183 15.144L91.1838 14.947L90.9502 14.9878L91.0299 15.2112L91.2183 15.144ZM94.1463 23.352L94.3323 23.4253L94.3598 23.3555L94.3346 23.2848L94.1463 23.352ZM96.2447 14.947L94.7327 14.683L94.6638 15.077L96.1758 15.341L96.2447 14.947ZM94.8983 14.88V14.016H94.4982V14.88H94.8983ZM94.6982 14.216H98.4902V13.816H94.6982V14.216ZM98.2902 14.016V14.88H98.6903V14.016H98.2902ZM98.4334 14.6882L97.7854 14.8802L97.8991 15.2638L98.5471 15.0718L98.4334 14.6882ZM97.7858 14.8801C97.4719 14.9724 97.2359 15.1507 97.1276 15.4322L97.5009 15.5758C97.5526 15.4413 97.6686 15.3316 97.8987 15.2639L97.7858 14.8801ZM97.126 15.4365L94.03 24.0765L94.4065 24.2115L97.5025 15.5715L97.126 15.4365ZM94.2183 23.944H93.1382V24.344H94.2183V23.944ZM93.3275 24.2086L96.3995 15.2086L96.021 15.0794L92.949 24.0794L93.3275 24.2086ZM93.8343 23.944H92.5863V24.344H93.8343V23.944ZM92.7726 24.0713L89.4126 15.4553L89.0399 15.6007L92.3999 24.2167L92.7726 24.0713ZM89.4075 15.4434C89.2747 15.1589 89.0649 14.9619 88.7772 14.8797L88.6673 15.2643C88.8276 15.3101 88.9538 15.4171 89.045 15.6126L89.4075 15.4434ZM88.7791 14.8802L88.1311 14.6882L88.0174 15.0718L88.6654 15.2638L88.7791 14.8802ZM88.2743 14.88V14.016H87.8742V14.88H88.2743ZM88.0742 14.216H92.7303V13.816H88.0742V14.216ZM92.5303 14.016V14.88H92.9302V14.016H92.5303ZM92.6959 14.683L91.1838 14.947L91.2527 15.341L92.7647 15.077L92.6959 14.683ZM91.0299 15.2112L93.9579 23.4192L94.3346 23.2848L91.4066 15.0768L91.0299 15.2112ZM93.9602 23.2787L93.6482 24.0707L94.0203 24.2173L94.3323 23.4253L93.9602 23.2787ZM100.474 15.216L100.324 15.0836L100.324 15.0838L100.474 15.216ZM106.522 14.664L106.654 14.5139L106.522 14.664ZM107.506 17.856L107.706 17.8702L107.706 17.8693L107.506 17.856ZM107.434 18.48V18.68H107.604L107.631 18.5129L107.434 18.48ZM100.594 18.48H100.394V18.68H100.594V18.48ZM100.594 17.568V17.368H100.394V17.568H100.594ZM105.634 17.568V17.768H105.798L105.83 17.6072L105.634 17.568ZM105.658 17.352L105.464 17.3035L105.458 17.3274V17.352H105.658ZM105.13 15.432L104.973 15.5557L104.978 15.5617L105.13 15.432ZM101.842 15.696L102.007 15.8098L101.842 15.696ZM101.578 21.24L101.393 21.3159L101.394 21.3176L101.578 21.24ZM102.61 22.56L102.504 22.7294L102.511 22.7336L102.61 22.56ZM105.706 22.56L105.614 22.3823L105.612 22.3835L105.706 22.56ZM106.882 21.504L106.985 21.3325L106.819 21.2327L106.714 21.3958L106.882 21.504ZM107.482 21.864L107.674 21.9195L107.717 21.7717L107.585 21.6925L107.482 21.864ZM106.138 23.592L106.032 23.4226L106.03 23.4238L106.138 23.592ZM101.146 23.592L101.031 23.7559L101.036 23.759L101.146 23.592ZM99.7062 21.792L99.5216 21.8689L99.5222 21.8703L99.7062 21.792ZM99.4262 19.152C99.4262 17.5042 99.8339 16.245 100.624 15.3482L100.324 15.0838C99.4505 16.075 99.0262 17.4398 99.0262 19.152H99.4262ZM100.624 15.3484C101.43 14.4365 102.508 13.976 103.882 13.976V13.576C102.408 13.576 101.215 14.0755 100.324 15.0836L100.624 15.3484ZM103.882 13.976C104.932 13.976 105.762 14.2608 106.39 14.8141L106.654 14.5139C105.938 13.8832 105.008 13.576 103.882 13.576V13.976ZM106.39 14.8141C107.008 15.3584 107.33 16.1609 107.33 17.256H107.73C107.73 16.0791 107.381 15.1536 106.654 14.5139L106.39 14.8141ZM107.33 17.256C107.33 17.41 107.322 17.6052 107.307 17.8427L107.706 17.8693C107.722 17.6268 107.73 17.422 107.73 17.256H107.33ZM107.307 17.8418C107.291 18.0604 107.268 18.2621 107.237 18.4471L107.631 18.5129C107.665 18.3139 107.689 18.0996 107.706 17.8702L107.307 17.8418ZM107.434 18.28H100.594V18.68H107.434V18.28ZM100.794 18.48V17.568H100.394V18.48H100.794ZM100.594 17.768H105.634V17.368H100.594V17.768ZM105.83 17.6072C105.848 17.5176 105.858 17.4322 105.858 17.352H105.458C105.458 17.3998 105.452 17.4584 105.438 17.5288L105.83 17.6072ZM105.852 17.4005C105.874 17.3152 105.882 17.2177 105.882 17.112H105.482C105.482 17.1983 105.475 17.2608 105.464 17.3035L105.852 17.4005ZM105.882 17.112C105.882 16.387 105.687 15.7778 105.282 15.3023L104.978 15.5617C105.309 15.9502 105.482 16.461 105.482 17.112H105.882ZM105.287 15.3084C104.891 14.8045 104.325 14.56 103.618 14.56V14.96C104.223 14.96 104.665 15.1635 104.973 15.5556L105.287 15.3084ZM103.618 14.56C102.8 14.56 102.147 14.9048 101.678 15.5822L102.007 15.8098C102.402 15.2392 102.933 14.96 103.618 14.96V14.56ZM101.678 15.5822C101.21 16.2575 100.994 17.3167 100.994 18.72H101.394C101.394 17.3393 101.61 16.3825 102.007 15.8098L101.678 15.5822ZM100.994 18.72C100.994 19.7889 101.123 20.6581 101.393 21.3159L101.763 21.1641C101.521 20.5739 101.394 19.7631 101.394 18.72H100.994ZM101.394 21.3176C101.661 21.9524 102.028 22.4298 102.504 22.7292L102.717 22.3908C102.328 22.1462 102.007 21.7436 101.763 21.1624L101.394 21.3176ZM102.511 22.7336C102.993 23.0089 103.54 23.144 104.146 23.144V22.744C103.601 22.744 103.124 22.6231 102.709 22.3864L102.511 22.7336ZM104.146 23.144C104.738 23.144 105.29 23.0084 105.8 22.7365L105.612 22.3835C105.162 22.6236 104.674 22.744 104.146 22.744V23.144ZM105.798 22.7377C106.324 22.4664 106.743 22.0911 107.05 21.6122L106.714 21.3958C106.446 21.8129 106.081 22.1416 105.614 22.3823L105.798 22.7377ZM106.779 21.6755L107.379 22.0355L107.585 21.6925L106.985 21.3325L106.779 21.6755ZM107.29 21.8085C107.097 22.4772 106.682 23.0144 106.032 23.4226L106.245 23.7614C106.97 23.3056 107.451 22.6908 107.674 21.9195L107.29 21.8085ZM106.03 23.4238C105.398 23.8302 104.598 24.04 103.618 24.04V24.44C104.655 24.44 105.535 24.2178 106.246 23.7602L106.03 23.4238ZM103.618 24.04C102.655 24.04 101.872 23.8304 101.256 23.425L101.036 23.759C101.732 24.2176 102.597 24.44 103.618 24.44V24.04ZM101.261 23.4282C100.653 23.0026 100.196 22.4329 99.8902 21.7137L99.5222 21.8703C99.8561 22.6551 100.359 23.2854 101.031 23.7558L101.261 23.4282ZM99.8908 21.7151C99.5827 20.9757 99.4262 20.1226 99.4262 19.152H99.0262C99.0262 20.1654 99.1897 21.0723 99.5216 21.8689L99.8908 21.7151ZM113.067 22.944L113.036 23.1416L113.037 23.1418L113.067 22.944ZM114.339 23.136H114.539V22.9639L114.369 22.9382L114.339 23.136ZM114.339 24V24.2H114.539V24H114.339ZM108.987 24H108.787V24.2H108.987V24ZM108.987 23.112L108.961 22.9137L108.787 22.9367V23.112H108.987ZM110.259 22.944L110.285 23.1423L110.289 23.1418L110.259 22.944ZM110.259 9.792L110.289 9.59421L110.288 9.59408L110.259 9.792ZM108.939 9.6H108.739V9.77301L108.91 9.79792L108.939 9.6ZM108.939 8.808L108.883 8.61593L108.739 8.65781V8.808H108.939ZM110.619 8.472L110.645 8.67042L110.649 8.66979L110.619 8.472ZM112.323 8.304L112.465 8.16258L112.403 8.10131L112.317 8.1041L112.323 8.304ZM112.611 8.592H112.811V8.50916L112.753 8.45058L112.611 8.592ZM112.411 22.392C112.411 22.5826 112.457 22.7589 112.571 22.8974C112.686 23.0368 112.85 23.1122 113.036 23.1416L113.098 22.7464C112.98 22.7278 112.916 22.6872 112.879 22.6426C112.842 22.5971 112.811 22.5214 112.811 22.392H112.411ZM113.037 23.1418L114.309 23.3338L114.369 22.9382L113.097 22.7462L113.037 23.1418ZM114.139 23.136V24H114.539V23.136H114.139ZM114.339 23.8H108.987V24.2H114.339V23.8ZM109.187 24V23.112H108.787V24H109.187ZM109.013 23.3103L110.285 23.1423L110.233 22.7457L108.961 22.9137L109.013 23.3103ZM110.289 23.1418C110.478 23.1134 110.647 23.0431 110.767 22.9105C110.889 22.7764 110.939 22.6035 110.939 22.416H110.539C110.539 22.5325 110.509 22.5996 110.471 22.6415C110.432 22.6849 110.36 22.7266 110.23 22.7462L110.289 23.1418ZM110.939 22.416V10.32H110.539V22.416H110.939ZM110.939 10.32C110.939 10.1325 110.889 9.95964 110.767 9.82546C110.647 9.69288 110.478 9.62259 110.289 9.59421L110.23 9.98979C110.36 10.0094 110.432 10.0511 110.471 10.0945C110.509 10.1364 110.539 10.2035 110.539 10.32H110.939ZM110.288 9.59408L108.968 9.40208L108.91 9.79792L110.23 9.98992L110.288 9.59408ZM109.139 9.6V8.808H108.739V9.6H109.139ZM108.995 9.00007C109.479 8.85949 110.029 8.74933 110.645 8.67038L110.594 8.27362C109.962 8.35467 109.391 8.46851 108.883 8.61593L108.995 9.00007ZM110.649 8.66979C111.283 8.57461 111.843 8.51958 112.33 8.50389L112.317 8.1041C111.811 8.12042 111.235 8.17738 110.59 8.27421L110.649 8.66979ZM112.182 8.44542L112.47 8.73342L112.753 8.45058L112.465 8.16258L112.182 8.44542ZM112.411 8.592V22.392H112.811V8.592H112.411ZM129.449 22.2L129.275 22.1013L129.273 22.1049L129.449 22.2ZM127.961 23.64L127.865 23.4646L127.961 23.64ZM122.897 23.832L122.828 24.02L122.834 24.0217L122.897 23.832ZM121.217 23.04L121.017 23.0459L121.02 23.1503L121.107 23.2074L121.217 23.04ZM121.217 21.432L121.017 21.4202L121.017 21.4259L121.217 21.432ZM121.361 19.752V19.552H121.182L121.162 19.7299L121.361 19.752ZM122.273 19.752L122.47 19.7207L122.444 19.552H122.273V19.752ZM122.585 21.72L122.387 21.7513L122.389 21.7592L122.585 21.72ZM122.657 22.008L122.464 22.0629L122.47 22.0808L122.478 22.0974L122.657 22.008ZM122.897 22.32L122.755 22.4614L122.897 22.32ZM123.953 23.016L123.869 23.1974L123.871 23.1985L123.953 23.016ZM127.673 22.656L127.809 22.8022L127.809 22.8021L127.673 22.656ZM128.033 19.392L127.871 19.5097L127.874 19.5132L128.033 19.392ZM126.929 18.504L126.832 18.6793L126.839 18.6829L126.929 18.504ZM125.273 17.688L125.355 17.5056L125.353 17.505L125.273 17.688ZM123.569 16.848L123.47 17.022L123.474 17.0239L123.569 16.848ZM122.081 15.576L122.238 15.4529L122.081 15.576ZM122.585 11.16L122.716 11.3109L122.718 11.3093L122.585 11.16ZM129.257 10.896L129.456 10.8849L129.45 10.769L129.346 10.7171L129.257 10.896ZM129.281 12.528L129.481 12.5344L129.481 12.5342L129.281 12.528ZM129.137 14.016V14.216H129.307L129.334 14.0478L129.137 14.016ZM128.249 14.016L128.052 14.0542L128.084 14.216H128.249V14.016ZM127.913 12.288L127.715 12.3209L127.716 12.3262L127.913 12.288ZM127.817 12L127.633 12.0789L127.638 12.0894L127.817 12ZM127.553 11.664L127.418 11.8115L127.421 11.8145L127.553 11.664ZM126.689 11.208L126.752 11.0183L126.689 11.208ZM123.521 11.592L123.65 11.7443L123.654 11.7415L123.521 11.592ZM123.257 14.568L123.095 14.6856L123.257 14.568ZM124.385 15.504L124.289 15.6794L124.291 15.6806L124.385 15.504ZM126.209 16.416L126.123 16.5965L126.125 16.5976L126.209 16.416ZM127.985 17.328L127.886 17.5017L127.888 17.5028L127.985 17.328ZM129.401 18.528L129.242 18.6497L129.244 18.6523L129.401 18.528ZM129.753 20.352C129.753 20.9552 129.595 21.5374 129.275 22.1013L129.623 22.2987C129.975 21.6786 130.153 21.0288 130.153 20.352H129.753ZM129.273 22.1049C128.974 22.6585 128.508 23.1125 127.865 23.4646L128.057 23.8154C128.758 23.4315 129.284 22.9255 129.625 22.2951L129.273 22.1049ZM127.865 23.4646C127.231 23.8115 126.403 23.992 125.369 23.992V24.392C126.446 24.392 127.346 24.2045 128.057 23.8154L127.865 23.4646ZM125.369 23.992C124.458 23.992 123.656 23.8741 122.96 23.6423L122.834 24.0217C123.578 24.2699 124.424 24.392 125.369 24.392V23.992ZM122.965 23.644C122.269 23.3909 121.725 23.1331 121.326 22.8726L121.107 23.2074C121.541 23.4909 122.116 23.7611 122.828 24.02L122.965 23.644ZM121.417 23.0341C121.401 22.494 121.401 21.962 121.417 21.4381L121.017 21.4259C121.001 21.958 121.001 22.498 121.017 23.0459L121.417 23.0341ZM121.416 21.4437C121.448 20.9034 121.496 20.3469 121.56 19.7741L121.162 19.7299C121.098 20.3091 121.049 20.8726 121.017 21.4203L121.416 21.4437ZM121.361 19.952H122.273V19.552H121.361V19.952ZM122.075 19.7833L122.387 21.7513L122.782 21.6887L122.47 19.7207L122.075 19.7833ZM122.389 21.7592C122.406 21.8462 122.432 21.9477 122.464 22.0629L122.849 21.9531C122.818 21.8443 122.795 21.7538 122.781 21.6808L122.389 21.7592ZM122.478 22.0974C122.539 22.2195 122.635 22.3407 122.755 22.4614L123.038 22.1786C122.935 22.0753 122.871 21.9885 122.836 21.9186L122.478 22.0974ZM122.755 22.4614C123.033 22.7388 123.406 22.9829 123.869 23.1974L124.037 22.8346C123.603 22.6331 123.273 22.4132 123.038 22.1786L122.755 22.4614ZM123.871 23.1985C124.365 23.4198 124.921 23.528 125.537 23.528V23.128C124.968 23.128 124.469 23.0282 124.035 22.8335L123.871 23.1985ZM125.537 23.528C126.509 23.528 127.279 23.2973 127.809 22.8022L127.536 22.5098C127.107 22.9107 126.452 23.128 125.537 23.128V23.528ZM127.809 22.8021C128.352 22.2943 128.617 21.614 128.617 20.784H128.217C128.217 21.522 127.985 22.0897 127.536 22.5099L127.809 22.8021ZM128.617 20.784C128.617 20.1654 128.483 19.6532 128.192 19.2708L127.874 19.5132C128.094 19.8028 128.217 20.2186 128.217 20.784H128.617ZM128.194 19.2744C127.916 18.8911 127.52 18.5762 127.018 18.3251L126.839 18.6829C127.297 18.9118 127.638 19.1889 127.871 19.5096L128.194 19.2744ZM127.025 18.3289C126.555 18.0696 125.998 17.7952 125.355 17.5056L125.191 17.8704C125.827 18.1568 126.374 18.4264 126.832 18.6791L127.025 18.3289ZM125.353 17.505C124.815 17.2674 124.252 16.9898 123.664 16.6721L123.474 17.0239C124.07 17.3462 124.643 17.6286 125.192 17.871L125.353 17.505ZM123.667 16.6741C123.097 16.3504 122.621 15.9433 122.238 15.4529L121.923 15.6991C122.34 16.2327 122.856 16.6736 123.47 17.0219L123.667 16.6741ZM122.238 15.4529C121.872 14.9836 121.681 14.374 121.681 13.608H121.281C121.281 14.442 121.49 15.1444 121.923 15.6991L122.238 15.4529ZM121.681 13.608C121.681 12.6728 122.025 11.9122 122.716 11.3109L122.454 11.0091C121.673 11.6878 121.281 12.5592 121.281 13.608H121.681ZM122.718 11.3093C123.404 10.6976 124.421 10.376 125.801 10.376V9.976C124.364 9.976 123.237 10.3104 122.452 11.0107L122.718 11.3093ZM125.801 10.376C126.395 10.376 126.997 10.4385 127.609 10.5639L127.689 10.1721C127.052 10.0415 126.423 9.976 125.801 9.976V10.376ZM127.609 10.5639C128.22 10.6893 128.738 10.8605 129.167 11.0749L129.346 10.7171C128.879 10.4835 128.326 10.3027 127.689 10.1721L127.609 10.5639ZM129.057 10.9071C129.089 11.478 129.097 12.0162 129.081 12.5218L129.481 12.5342C129.497 12.0158 129.489 11.466 129.456 10.8849L129.057 10.9071ZM129.081 12.5216C129.065 13.0089 129.018 13.4965 128.939 13.9842L129.334 14.0478C129.416 13.5435 129.464 13.0391 129.481 12.5344L129.081 12.5216ZM129.137 13.816H128.249V14.216H129.137V13.816ZM128.445 13.9778L128.109 12.2498L127.716 12.3262L128.052 14.0542L128.445 13.9778ZM128.11 12.2551C128.09 12.1375 128.052 12.0226 127.996 11.9106L127.638 12.0894C127.678 12.1694 127.703 12.2465 127.715 12.3209L128.11 12.2551ZM128.001 11.9212C127.937 11.7731 127.827 11.6379 127.684 11.5135L127.421 11.8145C127.535 11.9141 127.6 12.0029 127.633 12.0788L128.001 11.9212ZM127.688 11.5166C127.467 11.314 127.149 11.1507 126.752 11.0183L126.626 11.3977C126.996 11.5213 127.255 11.662 127.418 11.8114L127.688 11.5166ZM126.752 11.0183C126.345 10.8826 125.899 10.816 125.417 10.816V11.216C125.862 11.216 126.265 11.2774 126.626 11.3977L126.752 11.0183ZM125.417 10.816C124.557 10.816 123.87 11.0142 123.388 11.4425L123.654 11.7415C124.036 11.4018 124.612 11.216 125.417 11.216V10.816ZM123.391 11.4398C122.904 11.8547 122.673 12.4527 122.673 13.2H123.073C123.073 12.5393 123.274 12.0653 123.65 11.7442L123.391 11.4398ZM122.673 13.2C122.673 13.7901 122.808 14.2908 123.095 14.6856L123.418 14.4504C123.194 14.1412 123.073 13.7299 123.073 13.2H122.673ZM123.095 14.6856C123.373 15.0675 123.774 15.3973 124.289 15.6794L124.481 15.3286C124.003 15.0667 123.653 14.7725 123.418 14.4504L123.095 14.6856ZM124.291 15.6806C124.806 15.9543 125.417 16.2597 126.123 16.5965L126.295 16.2355C125.593 15.9003 124.987 15.5977 124.479 15.3274L124.291 15.6806ZM126.125 16.5976C126.744 16.8833 127.331 17.1847 127.886 17.5016L128.084 17.1544C127.519 16.8313 126.921 16.5247 126.293 16.2344L126.125 16.5976ZM127.888 17.5028C128.442 17.8107 128.892 18.1933 129.242 18.6497L129.559 18.4063C129.173 17.9027 128.68 17.4853 128.082 17.1532L127.888 17.5028ZM129.244 18.6523C129.577 19.0723 129.753 19.6327 129.753 20.352H130.153C130.153 19.5673 129.96 18.9117 129.557 18.4037L129.244 18.6523ZM133.144 15.216H133.344V15.0364L133.166 15.0171L133.144 15.216ZM131.584 15.048H131.384V15.2276L131.563 15.2469L131.584 15.048ZM131.584 14.328L131.559 14.1297L131.384 14.1524V14.328H131.584ZM132.688 14.184L132.714 14.3828L132.728 14.3801L132.688 14.184ZM133.048 14.04L133.173 14.1962L133.176 14.1936L133.048 14.04ZM133.216 13.704L133.021 13.663L133.019 13.6724L133.018 13.6819L133.216 13.704ZM133.744 11.184V10.984H133.582L133.549 11.143L133.744 11.184ZM134.608 11.184H134.808V10.984H134.608V11.184ZM134.608 14.088H134.408V14.288H134.608V14.088ZM138.04 14.088H138.24V13.888H138.04V14.088ZM138.04 15.144V15.344H138.24V15.144H138.04ZM134.608 15.144V14.944H134.408V15.144H134.608ZM135.016 22.656L135.153 22.5104L135.016 22.656ZM137.224 22.824L137.306 23.0064L137.31 23.0046L137.224 22.824ZM138.064 22.2L138.195 22.0481L138.044 21.9193L137.914 22.0683L138.064 22.2ZM138.568 22.632L138.746 22.7237L138.819 22.5831L138.699 22.4801L138.568 22.632ZM137.416 23.784L137.323 23.6074H137.323L137.416 23.784ZM134.488 24L134.421 24.1883L134.427 24.1905L134.488 24ZM133.504 23.232L133.337 23.3413L133.34 23.3462L133.504 23.232ZM133.166 15.0171L131.606 14.8491L131.563 15.2469L133.123 15.4148L133.166 15.0171ZM131.784 15.048V14.328H131.384V15.048H131.784ZM131.61 14.5263L132.714 14.3823L132.663 13.9857L131.559 14.1297L131.61 14.5263ZM132.728 14.3801C132.902 14.3452 133.058 14.2886 133.173 14.1962L132.923 13.8838C132.879 13.9194 132.794 13.9588 132.649 13.9879L132.728 14.3801ZM133.176 14.1936C133.318 14.0753 133.394 13.9126 133.415 13.7261L133.018 13.6819C133.006 13.7834 132.97 13.8447 132.92 13.8864L133.176 14.1936ZM133.412 13.745L133.94 11.225L133.549 11.143L133.021 13.663L133.412 13.745ZM133.744 11.384H134.608V10.984H133.744V11.384ZM134.408 11.184V14.088H134.808V11.184H134.408ZM134.608 14.288H138.04V13.888H134.608V14.288ZM137.84 14.088V15.144H138.24V14.088H137.84ZM138.04 14.944H134.608V15.344H138.04V14.944ZM134.408 15.144V21.096H134.808V15.144H134.408ZM134.408 21.096C134.408 21.498 134.443 21.8424 134.517 22.1246C134.59 22.4058 134.706 22.6389 134.879 22.8016L135.153 22.5104C135.054 22.4171 134.966 22.2622 134.904 22.0234C134.842 21.7856 134.808 21.478 134.808 21.096H134.408ZM134.879 22.8016C135.197 23.1005 135.618 23.24 136.12 23.24V22.84C135.694 22.84 135.38 22.7235 135.153 22.5104L134.879 22.8016ZM136.12 23.24C136.559 23.24 136.956 23.1639 137.306 23.0064L137.142 22.6416C136.852 22.7721 136.513 22.84 136.12 22.84V23.24ZM137.31 23.0046C137.669 22.834 137.971 22.6101 138.215 22.3317L137.914 22.0683C137.709 22.3019 137.452 22.494 137.138 22.6434L137.31 23.0046ZM137.934 22.3519L138.438 22.7839L138.699 22.4801L138.195 22.0481L137.934 22.3519ZM138.391 22.5403C138.154 22.9986 137.8 23.3537 137.323 23.6074L137.51 23.9606C138.057 23.6703 138.471 23.2574 138.746 22.7237L138.391 22.5403ZM137.323 23.6074C136.841 23.8633 136.313 23.992 135.736 23.992V24.392C136.375 24.392 136.968 24.2487 137.51 23.9606L137.323 23.6074ZM135.736 23.992C135.324 23.992 134.929 23.931 134.549 23.8095L134.427 24.1905C134.848 24.325 135.284 24.392 135.736 24.392V23.992ZM134.556 23.8118C134.197 23.6827 133.902 23.4537 133.669 23.1178L133.34 23.3462C133.619 23.7463 133.979 24.0293 134.421 24.1882L134.556 23.8118ZM133.672 23.1227C133.462 22.8002 133.344 22.3243 133.344 21.672H132.944C132.944 22.3637 133.067 22.9278 133.337 23.3413L133.672 23.1227ZM133.344 21.672V15.216H132.944V21.672H133.344ZM142.624 16.152L142.451 16.0518L142.422 16.1015L142.424 16.1589L142.624 16.152ZM143.464 15.168L143.599 15.3155L143.602 15.3124L143.464 15.168ZM144.808 14.232L144.897 14.4109V14.4109L144.808 14.232ZM146.92 13.92L146.875 14.1149L146.882 14.1165L146.89 14.1177L146.92 13.92ZM147.472 14.088L147.672 14.0747L147.664 13.9604L147.561 13.9091L147.472 14.088ZM147.448 15.696L147.249 15.6798L147.248 15.6849L147.448 15.696ZM147.256 17.256V17.456H147.419L147.452 17.2965L147.256 17.256ZM146.512 17.256L146.315 17.2884L146.342 17.456H146.512V17.256ZM146.272 15.792L146.469 15.7596L146.469 15.7591L146.272 15.792ZM146.08 15.384L145.939 15.5254L145.945 15.5318L145.952 15.5376L146.08 15.384ZM144.088 15.648L144.171 15.8301L144.173 15.829L144.088 15.648ZM142.648 16.848L142.448 16.8549L142.467 17.4097L142.806 16.9702L142.648 16.848ZM142.96 16.128H143.16V16.1185L143.159 16.109L142.96 16.128ZM143.488 23.064L143.509 22.8651L143.506 22.8648L143.488 23.064ZM145.336 23.256H145.536V23.0757L145.357 23.0571L145.336 23.256ZM145.336 24V24.2H145.536V24H145.336ZM139.912 24H139.712V24.2H139.912V24ZM139.912 23.232L139.882 23.0343L139.712 23.0601V23.232H139.912ZM141.016 23.064L140.988 22.866L140.986 22.8663L141.016 23.064ZM141.016 15.192L141.044 14.9939L141.039 14.9933L141.016 15.192ZM139.768 15.048H139.568V15.2262L139.745 15.2467L139.768 15.048ZM139.768 14.328L139.711 14.1362L139.568 14.1787V14.328H139.768ZM141.16 14.016L141.192 14.2134L141.16 14.016ZM142.552 13.872L142.701 13.7382L142.638 13.6687L142.545 13.6721L142.552 13.872ZM142.768 14.112L142.967 14.093L142.961 14.0273L142.917 13.9782L142.768 14.112ZM142.797 16.2522C142.959 15.9721 143.224 15.6597 143.599 15.3154L143.329 15.0206C142.936 15.3803 142.641 15.7239 142.451 16.0518L142.797 16.2522ZM143.602 15.3124C143.971 14.9593 144.402 14.6586 144.897 14.4109L144.719 14.0531C144.19 14.3174 143.725 14.6407 143.326 15.0236L143.602 15.3124ZM144.897 14.4109C145.385 14.1671 145.867 14.048 146.344 14.048V13.648C145.797 13.648 145.255 13.7849 144.719 14.0531L144.897 14.4109ZM146.344 14.048C146.502 14.048 146.679 14.0696 146.875 14.1149L146.965 13.7251C146.745 13.6744 146.538 13.648 146.344 13.648V14.048ZM146.89 14.1177C147.081 14.1471 147.244 14.1976 147.383 14.2669L147.561 13.9091C147.38 13.8184 147.175 13.7569 146.95 13.7223L146.89 14.1177ZM147.272 14.1013C147.304 14.5695 147.296 15.0955 147.249 15.6798L147.647 15.7122C147.696 15.1125 147.704 14.5665 147.672 14.0747L147.272 14.1013ZM147.248 15.6849C147.217 16.2531 147.154 16.763 147.06 17.2155L147.452 17.2965C147.55 16.821 147.615 16.2909 147.648 15.7071L147.248 15.6849ZM147.256 17.056H146.512V17.456H147.256V17.056ZM146.709 17.2236L146.469 15.7596L146.075 15.8244L146.315 17.2884L146.709 17.2236ZM146.469 15.7591C146.434 15.545 146.357 15.3541 146.208 15.2304L145.952 15.5376C145.995 15.5739 146.046 15.655 146.075 15.8249L146.469 15.7591ZM146.221 15.2426C146.091 15.1118 145.911 15.064 145.72 15.064V15.464C145.849 15.464 145.909 15.4962 145.939 15.5254L146.221 15.2426ZM145.72 15.064C145.144 15.064 144.571 15.1998 144.003 15.467L144.173 15.829C144.693 15.5842 145.208 15.464 145.72 15.464V15.064ZM144.005 15.4659C143.442 15.7221 142.937 16.1456 142.49 16.7258L142.806 16.9702C143.223 16.4304 143.678 16.0539 144.171 15.8301L144.005 15.4659ZM142.848 16.8411L142.824 16.1451L142.424 16.1589L142.448 16.8549L142.848 16.8411ZM142.76 16.128V22.512H143.16V16.128H142.76ZM142.76 22.512C142.76 22.7146 142.814 22.9004 142.947 23.0402C143.08 23.1787 143.264 23.2445 143.47 23.2632L143.506 22.8648C143.36 22.8515 143.28 22.8093 143.237 22.7638C143.194 22.7196 143.16 22.6454 143.16 22.512H142.76ZM143.467 23.2629L145.315 23.4549L145.357 23.0571L143.509 22.8651L143.467 23.2629ZM145.136 23.256V24H145.536V23.256H145.136ZM145.336 23.8H139.912V24.2H145.336V23.8ZM140.112 24V23.232H139.712V24H140.112ZM139.942 23.4297L141.046 23.2617L140.986 22.8663L139.882 23.0343L139.942 23.4297ZM141.044 23.262C141.242 23.2338 141.417 23.1617 141.542 23.0249C141.668 22.8864 141.72 22.7073 141.72 22.512H141.32C141.32 22.6367 141.288 22.7095 141.246 22.7551C141.203 22.8023 141.126 22.8462 140.988 22.866L141.044 23.262ZM141.72 22.512V15.816H141.32V22.512H141.72ZM141.72 15.816C141.72 15.6033 141.671 15.4092 141.55 15.2583C141.426 15.1052 141.248 15.0232 141.044 14.994L140.988 15.39C141.12 15.4088 141.194 15.4548 141.238 15.5097C141.285 15.5668 141.32 15.6607 141.32 15.816H141.72ZM141.039 14.9933L139.791 14.8493L139.745 15.2467L140.993 15.3907L141.039 14.9933ZM139.968 15.048V14.328H139.568V15.048H139.968ZM139.825 14.5198C140.248 14.3944 140.703 14.2922 141.192 14.2134L141.128 13.8186C140.625 13.8998 140.152 14.0056 139.711 14.1362L139.825 14.5198ZM141.192 14.2134C141.681 14.1345 142.137 14.0875 142.559 14.0719L142.545 13.6721C142.103 13.6885 141.631 13.7374 141.128 13.8186L141.192 14.2134ZM142.403 14.0058L142.619 14.2458L142.917 13.9782L142.701 13.7382L142.403 14.0058ZM142.569 14.131L142.761 16.147L143.159 16.109L142.967 14.093L142.569 14.131ZM156.924 22.44L157.075 22.571L157.146 22.4886L157.116 22.384L156.924 22.44ZM155.46 23.688L155.562 23.8595L155.566 23.8573L155.46 23.688ZM151.044 23.28L150.887 23.4039L151.044 23.28ZM149.843 15.168L149.883 14.9716L149.873 14.9702L149.843 15.168ZM148.715 15H148.516V15.1724L148.686 15.1978L148.715 15ZM148.715 14.28L148.661 14.0877L148.516 14.1291V14.28H148.715ZM150.132 13.992L150.106 13.7936L150.132 13.992ZM151.548 13.872L151.696 13.7382L151.634 13.6688L151.54 13.6721L151.548 13.872ZM151.763 14.112H151.964V14.0353L151.912 13.9782L151.763 14.112ZM152.172 22.392L151.996 22.4882L152 22.4949L152.172 22.392ZM155.411 22.824L155.484 23.0106L155.489 23.0084L155.411 22.824ZM156.756 21.864L156.948 21.808L156.849 21.469L156.609 21.7281L156.756 21.864ZM159.539 23.832L159.603 24.0217L159.74 23.9762V23.832H159.539ZM158.796 24.024L158.754 23.8279L158.742 23.8313L158.796 24.024ZM156.876 23.64L156.705 23.7453L156.709 23.7509L156.876 23.64ZM156.516 22.488H156.315V22.4954L156.316 22.5028L156.516 22.488ZM156.035 15.168L156.065 14.9702L156.063 14.9699L156.035 15.168ZM154.644 14.976H154.444V15.1503L154.616 15.1741L154.644 14.976ZM154.644 14.256L154.59 14.0632L154.444 14.1037V14.256H154.644ZM156.203 13.968L156.226 14.1668L156.203 13.968ZM157.74 13.872L157.888 13.7382L157.829 13.672H157.74V13.872ZM157.955 14.112H158.156V14.0353L158.104 13.9782L157.955 14.112ZM158.1 22.896L158.228 22.7424L158.1 22.896ZM158.483 23.04L158.464 23.239L158.465 23.2392L158.483 23.04ZM159.539 23.136H159.74V22.9534L159.558 22.9368L159.539 23.136ZM156.772 22.309C156.37 22.7735 155.897 23.1767 155.353 23.5187L155.566 23.8573C156.142 23.4953 156.645 23.0665 157.075 22.571L156.772 22.309ZM155.357 23.5165C154.833 23.8304 154.199 23.992 153.443 23.992V24.392C154.256 24.392 154.966 24.2176 155.562 23.8595L155.357 23.5165ZM153.443 23.992C152.356 23.992 151.628 23.6974 151.2 23.1561L150.887 23.4039C151.419 24.0786 152.291 24.392 153.443 24.392V23.992ZM151.2 23.1561C150.761 22.5992 150.523 21.7246 150.523 20.496H150.123C150.123 21.7634 150.366 22.7448 150.887 23.4039L151.2 23.1561ZM150.523 20.496V15.744H150.123V20.496H150.523ZM150.523 15.744C150.523 15.5506 150.475 15.373 150.357 15.232C150.24 15.0914 150.074 15.0101 149.883 14.9719L149.804 15.3641C149.933 15.3899 150.007 15.4366 150.05 15.488C150.092 15.539 150.123 15.6174 150.123 15.744H150.523ZM149.873 14.9702L148.745 14.8022L148.686 15.1978L149.814 15.3658L149.873 14.9702ZM148.915 15V14.28H148.516V15H148.915ZM148.77 14.4723C149.208 14.3472 149.67 14.2532 150.157 14.1904L150.106 13.7936C149.601 13.8588 149.119 13.9568 148.661 14.0877L148.77 14.4723ZM150.157 14.1904C150.648 14.1271 151.113 14.0876 151.555 14.0719L151.54 13.6721C151.086 13.6884 150.607 13.7289 150.106 13.7936L150.157 14.1904ZM151.399 14.0058L151.615 14.2458L151.912 13.9782L151.696 13.7382L151.399 14.0058ZM151.563 14.112V20.184H151.964V14.112H151.563ZM151.563 20.184C151.563 21.1724 151.7 21.9485 151.996 22.4882L152.347 22.2958C152.099 21.8435 151.964 21.1476 151.964 20.184H151.563ZM152 22.4949C152.34 23.0612 152.986 23.312 153.852 23.312V22.912C153.053 22.912 152.579 22.6828 152.343 22.2891L152 22.4949ZM153.852 23.312C154.42 23.312 154.964 23.2116 155.484 23.0105L155.339 22.6375C154.867 22.8204 154.371 22.912 153.852 22.912V23.312ZM155.489 23.0084C156.014 22.7884 156.485 22.4508 156.902 21.9999L156.609 21.7281C156.226 22.1412 155.801 22.4436 155.334 22.6396L155.489 23.0084ZM156.563 21.92L156.731 22.496L157.116 22.384L156.948 21.808L156.563 21.92ZM159.476 23.6423C159.294 23.7029 159.054 23.7651 158.754 23.8283L158.837 24.2197C159.145 24.1549 159.401 24.0891 159.603 24.0217L159.476 23.6423ZM158.742 23.8313C158.469 23.9072 158.215 23.944 157.979 23.944V24.344C158.256 24.344 158.546 24.3008 158.849 24.2167L158.742 23.8313ZM157.979 23.944C157.514 23.944 157.219 23.7945 157.042 23.5291L156.709 23.7509C156.98 24.1575 157.421 24.344 157.979 24.344V23.944ZM157.046 23.5347C156.856 23.2287 156.745 22.8763 156.715 22.4732L156.316 22.5028C156.35 22.9637 156.479 23.3793 156.705 23.7453L157.046 23.5347ZM156.715 22.488V15.744H156.315V22.488H156.715ZM156.715 15.744C156.715 15.5454 156.668 15.3626 156.549 15.22C156.429 15.0763 156.259 14.9993 156.065 14.9702L156.006 15.3658C156.132 15.3847 156.202 15.4277 156.242 15.476C156.283 15.5254 156.315 15.6066 156.315 15.744H156.715ZM156.063 14.9699L154.671 14.7779L154.616 15.1741L156.008 15.3661L156.063 14.9699ZM154.843 14.976V14.256H154.444V14.976H154.843ZM154.697 14.4488C155.149 14.3241 155.658 14.2298 156.226 14.1668L156.181 13.7692C155.597 13.8342 155.066 13.9319 154.59 14.0632L154.697 14.4488ZM156.226 14.1668C156.796 14.1034 157.301 14.072 157.74 14.072V13.672C157.282 13.672 156.763 13.7046 156.181 13.7692L156.226 14.1668ZM157.591 14.0058L157.807 14.2458L158.104 13.9782L157.888 13.7382L157.591 14.0058ZM157.756 14.112V22.464H158.156V14.112H157.756ZM157.756 22.464C157.756 22.6929 157.807 22.9125 157.971 23.0496L158.228 22.7424C158.2 22.7195 158.156 22.6511 158.156 22.464H157.756ZM157.971 23.0496C158.106 23.1617 158.275 23.2202 158.464 23.239L158.503 22.841C158.372 22.8278 158.285 22.7903 158.228 22.7424L157.971 23.0496ZM158.465 23.2392L159.521 23.3352L159.558 22.9368L158.502 22.8408L158.465 23.2392ZM159.34 23.136V23.832H159.74V23.136H159.34ZM161.771 16.512L161.955 16.5894L161.956 16.5882L161.771 16.512ZM163.331 14.568L163.444 14.7332L163.331 14.568ZM167.603 14.016L167.563 14.2119L167.564 14.2121L167.603 14.016ZM168.947 14.448L169.146 14.432L169.137 14.322L169.04 14.2708L168.947 14.448ZM168.923 15.816L168.724 15.7973L168.723 15.8035L168.923 15.816ZM168.779 17.208V17.408H168.951L168.977 17.2384L168.779 17.208ZM168.011 17.208L167.817 17.2565L167.855 17.408H168.011V17.208ZM167.675 15.864L167.479 15.9033L167.481 15.9125L167.675 15.864ZM167.555 15.456L167.363 15.5109L167.366 15.5231L167.371 15.5348L167.555 15.456ZM167.315 15.144L167.19 15.3003L167.195 15.304L167.315 15.144ZM166.667 14.832L166.723 14.6401L166.667 14.832ZM163.619 15.744L163.781 15.861L163.619 15.744ZM163.715 22.08L163.873 21.9572L163.715 22.08ZM167.459 22.824L167.369 22.6451L167.367 22.6464L167.459 22.824ZM168.563 22.008L168.697 21.8593L168.548 21.7255L168.414 21.8742L168.563 22.008ZM169.043 22.44L169.22 22.5334L169.293 22.3956L169.177 22.2913L169.043 22.44ZM167.675 23.784L167.766 23.9619L167.768 23.961L167.675 23.784ZM163.211 23.592L163.099 23.7578L163.101 23.759L163.211 23.592ZM161.747 21.816L161.562 21.8929L161.564 21.8976L161.747 21.816ZM161.467 19.2C161.467 18.2308 161.631 17.3617 161.955 16.5894L161.587 16.4346C161.239 17.2623 161.067 18.1852 161.067 19.2H161.467ZM161.956 16.5882C162.278 15.8069 162.773 15.1904 163.444 14.7332L163.218 14.4028C162.481 14.9056 161.936 15.5851 161.586 16.4359L161.956 16.5882ZM163.444 14.7332C164.107 14.2811 164.953 14.048 165.995 14.048V13.648C164.893 13.648 163.963 13.8949 163.218 14.4028L163.444 14.7332ZM165.995 14.048C166.509 14.048 167.031 14.1025 167.563 14.2119L167.643 13.8201C167.087 13.7055 166.537 13.648 165.995 13.648V14.048ZM167.564 14.2121C168.113 14.3221 168.541 14.4613 168.854 14.6252L169.04 14.2708C168.681 14.0827 168.212 13.9339 167.642 13.8199L167.564 14.2121ZM168.748 14.4639C168.778 14.8497 168.771 15.2938 168.724 15.7973L169.122 15.8347C169.171 15.3142 169.179 14.8463 169.146 14.432L168.748 14.4639ZM168.723 15.8035C168.692 16.3108 168.644 16.7687 168.581 17.1776L168.977 17.2384C169.042 16.8153 169.09 16.3452 169.123 15.8285L168.723 15.8035ZM168.779 17.008H168.011V17.408H168.779V17.008ZM168.205 17.1595L167.869 15.8155L167.481 15.9125L167.817 17.2565L168.205 17.1595ZM167.871 15.8248C167.837 15.6555 167.794 15.5054 167.739 15.3772L167.371 15.5348C167.412 15.6306 167.449 15.7525 167.479 15.9032L167.871 15.8248ZM167.747 15.4011C167.699 15.2339 167.585 15.0966 167.435 14.984L167.195 15.304C167.301 15.3834 167.346 15.4541 167.363 15.5109L167.747 15.4011ZM167.44 14.9878C167.253 14.8386 167.011 14.7248 166.723 14.6401L166.611 15.0239C166.866 15.0992 167.056 15.1934 167.19 15.3002L167.44 14.9878ZM166.723 14.6401C166.43 14.5538 166.107 14.512 165.755 14.512V14.912C166.075 14.912 166.36 14.9502 166.611 15.0239L166.723 14.6401ZM165.755 14.512C164.77 14.512 163.994 14.8814 163.457 15.627L163.781 15.861C164.236 15.2306 164.884 14.912 165.755 14.912V14.512ZM163.457 15.627C162.926 16.3638 162.675 17.4287 162.675 18.792H163.075C163.075 17.4673 163.32 16.5002 163.781 15.861L163.457 15.627ZM162.675 18.792C162.675 20.2832 162.957 21.4319 163.557 22.2028L163.873 21.9572C163.352 21.2881 163.075 20.2448 163.075 18.792H162.675ZM163.557 22.2028C164.156 22.9735 164.968 23.36 165.971 23.36V22.96C165.086 22.96 164.393 22.6265 163.873 21.9572L163.557 22.2028ZM165.971 23.36C166.558 23.36 167.087 23.2424 167.551 23.0016L167.367 22.6464C166.967 22.8536 166.504 22.96 165.971 22.96V23.36ZM167.548 23.0029C168.015 22.7695 168.404 22.4832 168.712 22.1418L168.414 21.8742C168.146 22.1728 167.799 22.4305 167.369 22.6451L167.548 23.0029ZM168.429 22.1567L168.909 22.5887L169.177 22.2913L168.697 21.8593L168.429 22.1567ZM168.866 22.3466C168.582 22.8849 168.156 23.3047 167.582 23.607L167.768 23.961C168.41 23.6233 168.896 23.1471 169.22 22.5334L168.866 22.3466ZM167.584 23.6061C167.025 23.8929 166.362 24.04 165.587 24.04V24.44C166.412 24.44 167.141 24.2831 167.766 23.9619L167.584 23.6061ZM165.587 24.04C164.691 24.04 163.939 23.8318 163.321 23.425L163.101 23.759C163.795 24.2162 164.627 24.44 165.587 24.44V24.04ZM163.323 23.4262C162.716 23.0165 162.251 22.4547 161.93 21.7344L161.564 21.8976C161.915 22.6813 162.426 23.3035 163.099 23.7578L163.323 23.4262ZM161.932 21.7391C161.623 20.9993 161.467 20.1541 161.467 19.2H161.067C161.067 20.1979 161.231 21.0967 161.562 21.8929L161.932 21.7391ZM172.191 15.216H172.391V15.0364L172.213 15.0171L172.191 15.216ZM170.631 15.048H170.431V15.2276L170.61 15.2469L170.631 15.048ZM170.631 14.328L170.605 14.1297L170.431 14.1524V14.328H170.631ZM171.735 14.184L171.761 14.3828L171.774 14.3801L171.735 14.184ZM172.095 14.04L172.22 14.1962L172.223 14.1936L172.095 14.04ZM172.263 13.704L172.067 13.663L172.066 13.6724L172.064 13.6819L172.263 13.704ZM172.791 11.184V10.984H172.629L172.595 11.143L172.791 11.184ZM173.655 11.184H173.855V10.984H173.655V11.184ZM173.655 14.088H173.455V14.288H173.655V14.088ZM177.087 14.088H177.287V13.888H177.087V14.088ZM177.087 15.144V15.344H177.287V15.144H177.087ZM173.655 15.144V14.944H173.455V15.144H173.655ZM174.063 22.656L174.2 22.5104L174.063 22.656ZM176.271 22.824L176.353 23.0064L176.357 23.0046L176.271 22.824ZM177.111 22.2L177.241 22.0481L177.091 21.9193L176.961 22.0683L177.111 22.2ZM177.615 22.632L177.793 22.7237L177.866 22.5831L177.745 22.4801L177.615 22.632ZM176.463 23.784L176.369 23.6074L176.463 23.784ZM173.535 24L173.467 24.1883L173.474 24.1905L173.535 24ZM172.551 23.232L172.384 23.3413L172.387 23.3462L172.551 23.232ZM172.213 15.0171L170.653 14.8491L170.61 15.2469L172.17 15.4148L172.213 15.0171ZM170.831 15.048V14.328H170.431V15.048H170.831ZM170.657 14.5263L171.761 14.3823L171.709 13.9857L170.605 14.1297L170.657 14.5263ZM171.774 14.3801C171.949 14.3452 172.105 14.2886 172.22 14.1962L171.97 13.8838C171.926 13.9194 171.841 13.9588 171.696 13.9879L171.774 14.3801ZM172.223 14.1936C172.365 14.0753 172.441 13.9126 172.462 13.7261L172.064 13.6819C172.053 13.7834 172.017 13.8447 171.967 13.8864L172.223 14.1936ZM172.459 13.745L172.987 11.225L172.595 11.143L172.067 13.663L172.459 13.745ZM172.791 11.384H173.655V10.984H172.791V11.384ZM173.455 11.184V14.088H173.855V11.184H173.455ZM173.655 14.288H177.087V13.888H173.655V14.288ZM176.887 14.088V15.144H177.287V14.088H176.887ZM177.087 14.944H173.655V15.344H177.087V14.944ZM173.455 15.144V21.096H173.855V15.144H173.455ZM173.455 21.096C173.455 21.498 173.49 21.8424 173.564 22.1246C173.637 22.4058 173.753 22.6389 173.926 22.8016L174.2 22.5104C174.101 22.4171 174.013 22.2622 173.951 22.0234C173.889 21.7856 173.855 21.478 173.855 21.096H173.455ZM173.926 22.8016C174.244 23.1005 174.665 23.24 175.167 23.24V22.84C174.741 22.84 174.427 22.7235 174.2 22.5104L173.926 22.8016ZM175.167 23.24C175.606 23.24 176.003 23.1639 176.353 23.0064L176.189 22.6416C175.899 22.7721 175.56 22.84 175.167 22.84V23.24ZM176.357 23.0046C176.716 22.834 177.018 22.6101 177.262 22.3317L176.961 22.0683C176.756 22.3019 176.499 22.494 176.185 22.6434L176.357 23.0046ZM176.981 22.3519L177.485 22.7839L177.745 22.4801L177.241 22.0481L176.981 22.3519ZM177.438 22.5403C177.201 22.9986 176.847 23.3537 176.369 23.6074L176.557 23.9606C177.104 23.6703 177.518 23.2574 177.793 22.7237L177.438 22.5403ZM176.369 23.6074C175.888 23.8633 175.36 23.992 174.783 23.992V24.392C175.422 24.392 176.015 24.2487 176.557 23.9606L176.369 23.6074ZM174.783 23.992C174.371 23.992 173.976 23.931 173.596 23.8095L173.474 24.1905C173.895 24.325 174.331 24.392 174.783 24.392V23.992ZM173.603 23.8118C173.244 23.6827 172.949 23.4537 172.715 23.1178L172.387 23.3462C172.665 23.7463 173.026 24.0293 173.468 24.1882L173.603 23.8118ZM172.719 23.1227C172.508 22.8002 172.391 22.3243 172.391 21.672H171.991C171.991 22.3637 172.114 22.9278 172.384 23.3413L172.719 23.1227ZM172.391 21.672V15.216H171.991V21.672H172.391Z" fill="#777777"/>
<path d="M56.416 19.848L57.4 19.968C57.384 20.592 57.352 21.264 57.304 21.984C57.256 22.688 57.16 23.36 57.016 24H46.96V23.112L48.352 22.872C48.656 22.824 48.808 22.64 48.808 22.32V12.048C48.808 11.728 48.656 11.544 48.352 11.496L46.96 11.232V10.344H53.032V11.232L51.208 11.52C50.904 11.584 50.752 11.768 50.752 12.072V22.944H53.224C53.64 22.944 54.008 22.928 54.328 22.896C54.664 22.864 54.936 22.808 55.144 22.728C55.4 22.632 55.568 22.456 55.648 22.2L56.416 19.848ZM61.6949 24.192C60.8949 24.192 60.2229 23.984 59.6789 23.568C59.1509 23.152 58.8869 22.552 58.8869 21.768C58.8869 21.096 59.0789 20.568 59.4629 20.184C59.8629 19.784 60.3589 19.496 60.9509 19.32C61.5429 19.144 62.1429 19.032 62.7509 18.984L65.1029 18.792V19.704L63.0629 19.896C62.3589 19.944 61.8149 20.104 61.4309 20.376C61.0629 20.648 60.8789 21.056 60.8789 21.6C60.8789 22.032 60.9989 22.368 61.2389 22.608C61.4949 22.848 61.8709 22.968 62.3669 22.968C62.8949 22.968 63.4149 22.848 63.9269 22.608C64.4549 22.368 64.8549 22.072 65.1269 21.72L65.3429 22.176C65.0069 22.768 64.5109 23.256 63.8549 23.64C63.2149 24.008 62.4949 24.192 61.6949 24.192ZM59.1749 15.888C59.4149 15.216 59.8949 14.704 60.6149 14.352C61.3349 14 62.1589 13.824 63.0869 13.824C64.2549 13.824 65.1269 14.12 65.7029 14.712C66.2789 15.288 66.5669 16.176 66.5669 17.376V22.344C66.5669 22.696 66.7429 22.888 67.0949 22.92L68.0789 23.016V23.832C67.9189 23.88 67.6709 23.944 67.3349 24.024C66.9989 24.104 66.6869 24.144 66.3989 24.144C65.9189 24.144 65.5349 24.008 65.2469 23.736C64.9749 23.464 64.8069 23.064 64.7429 22.536V17.64C64.7429 16.744 64.5589 16.12 64.1909 15.768C63.8389 15.4 63.2949 15.216 62.5589 15.216C62.0149 15.216 61.4949 15.304 60.9989 15.48C60.5029 15.656 60.0469 15.944 59.6309 16.344L59.1749 15.888ZM72.4338 16.296C72.6418 15.912 72.9298 15.528 73.2978 15.144C73.6818 14.744 74.1138 14.416 74.5938 14.16C75.0898 13.904 75.5938 13.776 76.1058 13.776C76.2818 13.776 76.4818 13.8 76.7058 13.848C76.9458 13.896 77.1458 13.96 77.3058 14.04C77.3378 14.52 77.3298 15.072 77.2818 15.696C77.2498 16.304 77.1778 16.864 77.0658 17.376H76.1778L75.9138 16.008C75.8658 15.816 75.7938 15.68 75.6978 15.6C75.6178 15.52 75.4898 15.48 75.3138 15.48C74.8498 15.48 74.3698 15.6 73.8738 15.84C73.3778 16.064 72.9298 16.424 72.5298 16.92L72.4338 16.296ZM72.8658 16.272V22.392C72.8658 22.728 73.0338 22.912 73.3698 22.944L75.1218 23.136V24H69.4578V23.112L70.5138 22.944C70.8338 22.896 70.9938 22.712 70.9938 22.392V15.888C70.9938 15.536 70.8338 15.336 70.5138 15.288L69.3138 15.144V14.28C69.7778 14.136 70.2738 14.024 70.8018 13.944C71.3458 13.864 71.8498 13.816 72.3138 13.8L72.6018 14.088L72.8658 16.272ZM81.3355 24.192C80.5355 24.192 79.8635 23.984 79.3195 23.568C78.7915 23.152 78.5275 22.552 78.5275 21.768C78.5275 21.096 78.7195 20.568 79.1035 20.184C79.5035 19.784 79.9995 19.496 80.5915 19.32C81.1835 19.144 81.7835 19.032 82.3915 18.984L84.7435 18.792V19.704L82.7035 19.896C81.9995 19.944 81.4555 20.104 81.0715 20.376C80.7035 20.648 80.5195 21.056 80.5195 21.6C80.5195 22.032 80.6395 22.368 80.8795 22.608C81.1355 22.848 81.5115 22.968 82.0075 22.968C82.5355 22.968 83.0555 22.848 83.5675 22.608C84.0955 22.368 84.4955 22.072 84.7675 21.72L84.9835 22.176C84.6475 22.768 84.1515 23.256 83.4955 23.64C82.8555 24.008 82.1355 24.192 81.3355 24.192ZM78.8155 15.888C79.0555 15.216 79.5355 14.704 80.2555 14.352C80.9755 14 81.7995 13.824 82.7275 13.824C83.8955 13.824 84.7675 14.12 85.3435 14.712C85.9195 15.288 86.2075 16.176 86.2075 17.376V22.344C86.2075 22.696 86.3835 22.888 86.7355 22.92L87.7195 23.016V23.832C87.5595 23.88 87.3115 23.944 86.9755 24.024C86.6395 24.104 86.3275 24.144 86.0395 24.144C85.5595 24.144 85.1755 24.008 84.8875 23.736C84.6155 23.464 84.4475 23.064 84.3835 22.536V17.64C84.3835 16.744 84.1995 16.12 83.8315 15.768C83.4795 15.4 82.9355 15.216 82.1995 15.216C81.6555 15.216 81.1355 15.304 80.6395 15.48C80.1435 15.656 79.6875 15.944 79.2715 16.344L78.8155 15.888ZM96.2103 15.144L94.6983 14.88V14.016H98.4903V14.88L97.8423 15.072C97.5703 15.152 97.3943 15.296 97.3143 15.504L94.2183 24.144H93.1383L96.2103 15.144ZM93.8343 24.144H92.5863L89.2263 15.528C89.1143 15.288 88.9463 15.136 88.7223 15.072L88.0743 14.88V14.016H92.7303V14.88L91.2183 15.144L94.1463 23.352L93.8343 24.144ZM99.2262 19.152C99.2262 17.472 99.6422 16.16 100.474 15.216C101.322 14.256 102.458 13.776 103.882 13.776C104.97 13.776 105.85 14.072 106.522 14.664C107.194 15.256 107.53 16.12 107.53 17.256C107.53 17.416 107.522 17.616 107.506 17.856C107.49 18.08 107.466 18.288 107.434 18.48H100.594V17.568H105.634C105.65 17.488 105.658 17.416 105.658 17.352C105.674 17.288 105.682 17.208 105.682 17.112C105.682 16.424 105.498 15.864 105.13 15.432C104.778 14.984 104.274 14.76 103.618 14.76C102.866 14.76 102.274 15.072 101.842 15.696C101.41 16.32 101.194 17.328 101.194 18.72C101.194 19.776 101.322 20.616 101.578 21.24C101.834 21.848 102.178 22.288 102.61 22.56C103.058 22.816 103.57 22.944 104.146 22.944C104.706 22.944 105.226 22.816 105.706 22.56C106.202 22.304 106.594 21.952 106.882 21.504L107.482 21.864C107.274 22.584 106.826 23.16 106.138 23.592C105.466 24.024 104.626 24.24 103.618 24.24C102.626 24.24 101.802 24.024 101.146 23.592C100.506 23.144 100.026 22.544 99.7062 21.792C99.3862 21.024 99.2262 20.144 99.2262 19.152ZM112.611 22.392C112.611 22.712 112.763 22.896 113.067 22.944L114.339 23.136V24H108.987V23.112L110.259 22.944C110.579 22.896 110.739 22.72 110.739 22.416V10.32C110.739 10.016 110.579 9.84 110.259 9.792L108.939 9.6V8.808C109.435 8.664 109.995 8.552 110.619 8.472C111.259 8.376 111.827 8.32 112.323 8.304L112.611 8.592V22.392ZM129.953 20.352C129.953 20.992 129.785 21.608 129.449 22.2C129.129 22.792 128.633 23.272 127.961 23.64C127.289 24.008 126.425 24.192 125.369 24.192C124.441 24.192 123.617 24.072 122.897 23.832C122.193 23.576 121.633 23.312 121.217 23.04C121.201 22.496 121.201 21.96 121.217 21.432C121.249 20.888 121.297 20.328 121.361 19.752H122.273L122.585 21.72C122.601 21.8 122.625 21.896 122.657 22.008C122.705 22.104 122.785 22.208 122.897 22.32C123.153 22.576 123.505 22.808 123.953 23.016C124.417 23.224 124.945 23.328 125.537 23.328C126.481 23.328 127.193 23.104 127.673 22.656C128.169 22.192 128.417 21.568 128.417 20.784C128.417 20.192 128.289 19.728 128.033 19.392C127.777 19.04 127.409 18.744 126.929 18.504C126.465 18.248 125.913 17.976 125.273 17.688C124.729 17.448 124.161 17.168 123.569 16.848C122.977 16.512 122.481 16.088 122.081 15.576C121.681 15.064 121.481 14.408 121.481 13.608C121.481 12.616 121.849 11.8 122.585 11.16C123.321 10.504 124.393 10.176 125.801 10.176C126.409 10.176 127.025 10.24 127.649 10.368C128.273 10.496 128.809 10.672 129.257 10.896C129.289 11.472 129.297 12.016 129.281 12.528C129.265 13.024 129.217 13.52 129.137 14.016H128.249L127.913 12.288C127.897 12.192 127.865 12.096 127.817 12C127.769 11.888 127.681 11.776 127.553 11.664C127.361 11.488 127.073 11.336 126.689 11.208C126.305 11.08 125.881 11.016 125.417 11.016C124.585 11.016 123.953 11.208 123.521 11.592C123.089 11.96 122.873 12.496 122.873 13.2C122.873 13.76 123.001 14.216 123.257 14.568C123.513 14.92 123.889 15.232 124.385 15.504C124.897 15.776 125.505 16.08 126.209 16.416C126.833 16.704 127.425 17.008 127.985 17.328C128.561 17.648 129.033 18.048 129.401 18.528C129.769 18.992 129.953 19.6 129.953 20.352ZM133.144 15.216L131.584 15.048V14.328L132.688 14.184C132.848 14.152 132.968 14.104 133.048 14.04C133.144 13.96 133.2 13.848 133.216 13.704L133.744 11.184H134.608V14.088H138.04V15.144H134.608V21.096C134.608 21.88 134.744 22.4 135.016 22.656C135.288 22.912 135.656 23.04 136.12 23.04C136.536 23.04 136.904 22.968 137.224 22.824C137.56 22.664 137.84 22.456 138.064 22.2L138.568 22.632C138.312 23.128 137.928 23.512 137.416 23.784C136.904 24.056 136.344 24.192 135.736 24.192C135.304 24.192 134.888 24.128 134.488 24C134.088 23.856 133.76 23.6 133.504 23.232C133.264 22.864 133.144 22.344 133.144 21.672V15.216ZM142.624 16.152C142.8 15.848 143.08 15.52 143.464 15.168C143.848 14.8 144.296 14.488 144.808 14.232C145.32 13.976 145.832 13.848 146.344 13.848C146.52 13.848 146.712 13.872 146.92 13.92C147.128 13.952 147.312 14.008 147.472 14.088C147.504 14.568 147.496 15.104 147.448 15.696C147.416 16.272 147.352 16.792 147.256 17.256H146.512L146.272 15.792C146.24 15.6 146.176 15.464 146.08 15.384C146 15.304 145.88 15.264 145.72 15.264C145.176 15.264 144.632 15.392 144.088 15.648C143.56 15.888 143.08 16.288 142.648 16.848L142.624 16.152ZM142.96 16.128V22.512C142.96 22.848 143.136 23.032 143.488 23.064L145.336 23.256V24H139.912V23.232L141.016 23.064C141.352 23.016 141.52 22.832 141.52 22.512V15.816C141.52 15.448 141.352 15.24 141.016 15.192L139.768 15.048V14.328C140.2 14.2 140.664 14.096 141.16 14.016C141.656 13.936 142.12 13.888 142.552 13.872L142.768 14.112L142.96 16.128ZM156.924 22.44C156.508 22.92 156.02 23.336 155.46 23.688C154.9 24.024 154.228 24.192 153.444 24.192C152.324 24.192 151.524 23.888 151.044 23.28C150.564 22.672 150.324 21.744 150.324 20.496V15.744C150.324 15.424 150.164 15.232 149.844 15.168L148.716 15V14.28C149.164 14.152 149.636 14.056 150.132 13.992C150.628 13.928 151.1 13.888 151.548 13.872L151.764 14.112V20.184C151.764 21.16 151.9 21.896 152.172 22.392C152.46 22.872 153.02 23.112 153.852 23.112C154.396 23.112 154.916 23.016 155.412 22.824C155.908 22.616 156.356 22.296 156.756 21.864L156.924 22.44ZM159.54 23.832C159.348 23.896 159.1 23.96 158.796 24.024C158.508 24.104 158.236 24.144 157.98 24.144C157.468 24.144 157.1 23.976 156.876 23.64C156.668 23.304 156.548 22.92 156.516 22.488V15.744C156.516 15.408 156.356 15.216 156.036 15.168L154.644 14.976V14.256C155.108 14.128 155.628 14.032 156.204 13.968C156.78 13.904 157.292 13.872 157.74 13.872L157.956 14.112V22.464C157.956 22.672 158.004 22.816 158.1 22.896C158.196 22.976 158.324 23.024 158.484 23.04L159.54 23.136V23.832ZM161.267 19.2C161.267 18.208 161.435 17.312 161.771 16.512C162.107 15.696 162.627 15.048 163.331 14.568C164.035 14.088 164.923 13.848 165.995 13.848C166.523 13.848 167.059 13.904 167.603 14.016C168.163 14.128 168.611 14.272 168.947 14.448C168.979 14.848 168.971 15.304 168.923 15.816C168.891 16.328 168.843 16.792 168.779 17.208H168.011L167.675 15.864C167.643 15.704 167.603 15.568 167.555 15.456C167.523 15.344 167.443 15.24 167.315 15.144C167.155 15.016 166.939 14.912 166.667 14.832C166.395 14.752 166.091 14.712 165.755 14.712C164.827 14.712 164.115 15.056 163.619 15.744C163.123 16.432 162.875 17.448 162.875 18.792C162.875 20.264 163.155 21.36 163.715 22.08C164.275 22.8 165.027 23.16 165.971 23.16C166.531 23.16 167.027 23.048 167.459 22.824C167.907 22.6 168.275 22.328 168.563 22.008L169.043 22.44C168.739 23.016 168.283 23.464 167.675 23.784C167.083 24.088 166.387 24.24 165.587 24.24C164.659 24.24 163.867 24.024 163.211 23.592C162.571 23.16 162.083 22.568 161.747 21.816C161.427 21.048 161.267 20.176 161.267 19.2ZM172.191 15.216L170.631 15.048V14.328L171.735 14.184C171.895 14.152 172.015 14.104 172.095 14.04C172.191 13.96 172.247 13.848 172.263 13.704L172.791 11.184H173.655V14.088H177.087V15.144H173.655V21.096C173.655 21.88 173.791 22.4 174.063 22.656C174.335 22.912 174.703 23.04 175.167 23.04C175.583 23.04 175.951 22.968 176.271 22.824C176.607 22.664 176.887 22.456 177.111 22.2L177.615 22.632C177.359 23.128 176.975 23.512 176.463 23.784C175.951 24.056 175.391 24.192 174.783 24.192C174.351 24.192 173.935 24.128 173.535 24C173.135 23.856 172.807 23.6 172.551 23.232C172.311 22.864 172.191 22.344 172.191 21.672V15.216Z" fill="#333333"/>
<path d="M17.5 0.57735C18.1188 0.220085 18.8812 0.220085 19.5 0.57735L33.5215 8.67265C34.1403 9.02991 34.5215 9.69017 34.5215 10.4047V26.5953C34.5215 27.3098 34.1403 27.9701 33.5215 28.3274L19.5 36.4226C18.8812 36.7799 18.1188 36.7799 17.5 36.4226L3.47853 28.3274C2.85973 27.9701 2.47853 27.3098 2.47853 26.5953V10.4047C2.47853 9.69017 2.85973 9.02991 3.47853 8.67265L17.5 0.57735Z" fill="url(#paint0_linear_18_26)"/>
<g filter="url(#filter0_d_18_26)">
<path d="M18 5.28868C18.3094 5.11004 18.6906 5.11004 19 5.28868L29.6913 11.4613C30.0007 11.64 30.1913 11.9701 30.1913 12.3274V24.6726C30.1913 25.0299 30.0007 25.36 29.6913 25.5387L19 31.7113C18.6906 31.89 18.3094 31.89 18 31.7113L7.30866 25.5387C6.99926 25.36 6.80866 25.0299 6.80866 24.6726V12.3274C6.80866 11.9701 6.99926 11.64 7.30866 11.4613L18 5.28868Z" fill="white"/>
</g>
<path d="M26 15.1567C25.9719 15.1293 25.9719 15.1293 25.9719 15.102C25.9436 15.0747 25.9436 15.0747 25.9436 15.0747L25.9155 15.0473C25.9155 15.0473 25.8874 15.0473 25.8874 15.02L23.1831 13.5168C23.0986 13.4895 23.0141 13.4895 22.9577 13.5168L20.2535 15.02C20.2253 15.0473 20.2253 15.0473 20.2253 15.0473C20.1972 15.0473 20.1972 15.0747 20.1972 15.0747C20.1972 15.0747 20.169 15.0747 20.169 15.102C20.1408 15.1293 20.1408 15.1293 20.1408 15.1567C20.1408 15.184 20.1408 15.2113 20.1408 15.2113V18.1084L17.8592 19.3656V13.7355C17.8592 13.7082 17.8592 13.7082 17.8592 13.6808V13.6535C17.8592 13.6535 17.8592 13.6262 17.831 13.6262V13.5988C17.831 13.5988 17.8028 13.5988 17.8028 13.5715C17.8028 13.5715 17.8028 13.5715 17.7746 13.5715C17.7746 13.5442 17.7746 13.5442 17.7465 13.5442L15.0423 12.041C14.9859 11.9863 14.9014 11.9863 14.8169 12.041L12.1127 13.5442C12.1127 13.5442 12.0845 13.5442 12.0845 13.5715H12.0563C12.0563 13.5988 12.0563 13.5988 12.0282 13.5988V13.6262C12.0282 13.6262 12.0282 13.6535 12 13.6535V13.6808C12 13.7082 12 13.7082 12 13.7355V22.7545C12 22.8365 12.0282 22.8912 12.1127 22.9459L17.5211 25.9522C17.5493 25.9795 17.5493 25.9795 17.5775 25.9795C17.6338 26.0068 17.662 26.0068 17.6901 25.9795C17.7183 25.9795 17.7183 25.9795 17.7183 25.9795C17.7183 25.9795 17.7465 25.9795 17.7465 25.9522L23.1831 22.9459C23.2394 22.8912 23.2958 22.8365 23.2958 22.7545V19.8575L25.8874 18.409C25.9719 18.3817 26 18.2997 26 18.2177V15.2113C26 15.2113 26 15.184 26 15.1567ZM14.9296 12.4783L17.1831 13.7355L14.9296 14.9927L12.6761 13.7355L14.9296 12.4783ZM17.4084 14.1181V19.6115L16.1127 20.3495L15.1549 20.8687V15.3753L16.4789 14.6374L17.4084 14.1181ZM17.4084 25.4056L12.4507 22.6179V14.1181L13.4085 14.6374L14.7042 15.3753V21.2514V21.2787V21.306C14.7042 21.3334 14.7324 21.3334 14.7324 21.3334C14.7324 21.3607 14.7324 21.3607 14.7324 21.3607L14.7606 21.388V21.4153C14.7887 21.4153 14.7887 21.4153 14.7887 21.4153C14.7887 21.4427 14.8169 21.4427 14.8169 21.4427L17.4084 22.8639V25.4056ZM17.6338 22.4812L15.3803 21.2514L17.7465 19.9395L20.3662 18.491L22.6197 19.7482L20.9577 20.6501L17.6338 22.4812ZM22.8451 22.6179L17.8592 25.4056V22.8639L21.5493 20.8414L22.8451 20.1308V22.6179ZM22.8451 19.3656L21.8873 18.819L20.5915 18.1084V15.594L21.5211 16.1406L22.8451 16.8512V19.3656ZM23.0704 16.4959L20.8169 15.2113L23.0704 13.9541L25.3239 15.2113L23.0704 16.4959ZM23.2958 19.3656V16.8512L24.6198 16.1406L25.5493 15.594V18.1084L23.2958 19.3656Z" fill="#A41717"/>
<defs>
<filter id="filter0_d_18_26" x="4.80865" y="5.15469" width="27.3827" height="30.6906" filterUnits="userSpaceOnUse" color-interpolation-filters="sRGB">
<feFlood flood-opacity="0" result="BackgroundImageFix"/>
<feColorMatrix in="SourceAlpha" type="matrix" values="0 0 0 0 0 0 0 0 0 0 0 0 0 0 0 0 0 0 127 0" result="hardAlpha"/>
<feOffset dy="2"/>
<feGaussianBlur stdDeviation="1"/>
<feComposite in2="hardAlpha" operator="out"/>
<feColorMatrix type="matrix" values="0 0 0 0 0 0 0 0 0 0 0 0 0 0 0 0 0 0 0.25 0"/>
<feBlend mode="normal" in2="BackgroundImageFix" result="effect1_dropShadow_18_26"/>
<feBlend mode="normal" in="SourceGraphic" in2="effect1_dropShadow_18_26" result="shape"/>
</filter>
<linearGradient id="paint0_linear_18_26" x1="18.5" y1="0" x2="18.5" y2="37" gradientUnits="userSpaceOnUse">
<stop stop-color="#DF3535"/>
<stop offset="1" stop-color="#A41717"/>
</linearGradient>
</defs>
</svg>
